<svg width="79" height="106" viewBox="0 0 79 106" fill="none" xmlns="http://www.w3.org/2000/svg">
<path fill-rule="evenodd" clip-rule="evenodd" d="M9.5 0C4.25329 0 0 4.25329 0 9.5V96.5C0 101.747 4.25329 106 9.5 106H69.5C74.7467 106 79 101.747 79 96.5V9.5C79 4.2533 74.7467 0 69.5 0H9.5ZM7 9.5C7 8.11929 8.11929 7 9.5 7H69.5C70.8807 7 72 8.11929 72 9.5V96.5C72 97.8807 70.8807 99 69.5 99H9.5C8.11929 99 7 97.8807 7 96.5V9.5ZM20.0625 77.3438C20.5312 77.526 21.2865 77.6172 22.3281 77.6172H22.6797C24.2943 77.6172 25.2188 77.2526 25.4531 76.5234L29.4375 65.1172H49.8281L53.8906 76.5234C54.151 77.2526 55.0885 77.6172 56.7031 77.6172H57.2891C59.2422 77.6172 60.2188 77.2266 60.2188 76.4453C60.2188 76.1328 60.1536 75.8333 60.0234 75.5469L43.5781 29.8438C43.3177 29.0885 42.3932 28.7109 40.8047 28.7109H38.7734C37.1849 28.7109 36.2604 29.0885 36 29.8438L19.5547 75.5078C19.4245 75.9505 19.3594 76.263 19.3594 76.4453C19.3594 76.8359 19.5938 77.1354 20.0625 77.3438ZM40.6875 39.1797L47.9531 59.8438H31.3516L38.6172 39.1797C39.0078 38.2161 39.3594 36.862 39.6719 35.1172H39.8281C39.9323 35.7943 40.0495 36.4974 40.1797 37.2266C40.3099 37.9557 40.4792 38.6068 40.6875 39.1797Z" fill="#FFCB00"/>
</svg>
