<svg width="79" height="106" viewBox="0 0 79 106" fill="none" xmlns="http://www.w3.org/2000/svg">
<path fill-rule="evenodd" clip-rule="evenodd" d="M9.5 0C4.25329 0 0 4.25329 0 9.5V96.5C0 101.747 4.25329 106 9.5 106H69.5C74.7467 106 79 101.747 79 96.5V9.5C79 4.2533 74.7467 0 69.5 0H9.5ZM7 9.5C7 8.11929 8.11929 7 9.5 7H69.5C70.8807 7 72 8.11929 72 9.5V96.5C72 97.8807 70.8807 99 69.5 99H9.5C8.11929 99 7 97.8807 7 96.5V9.5ZM26.7266 76.9922C27.0651 77.3307 27.599 77.5 28.3281 77.5H40.2812C52.3646 77.5 58.4062 72.8385 58.4062 63.5156C58.4062 60.8073 57.6771 58.6068 56.2188 56.9141C54.7865 55.1953 53.1719 53.9062 51.375 53.0469C49.5781 52.1615 48.6797 51.8099 48.6797 51.9922V51.7188C50.0078 51.3542 51.2578 50.638 52.4297 49.5703C53.6016 48.4766 54.5391 47.1875 55.2422 45.7031C55.9453 44.1927 56.2969 42.6823 56.2969 41.1719C56.2969 38.724 55.7109 36.5755 54.5391 34.7266C53.3672 32.8776 51.6224 31.4453 49.3047 30.4297C46.987 29.4141 44.1354 28.9062 40.75 28.9062H28.3281C27.599 28.9062 27.0651 29.0755 26.7266 29.4141C26.388 29.7266 26.2188 30.2474 26.2188 30.9766V75.4297C26.2188 76.1328 26.388 76.6536 26.7266 76.9922ZM45.3594 48.7891C43.901 49.4922 42.2604 49.8438 40.4375 49.8438H32.3516V34.1797H40.1641C43.6016 34.1797 46.1016 34.7917 47.6641 36.0156C49.2266 37.2135 50.0078 39.1146 50.0078 41.7188C50.0078 43.2292 49.5911 44.6094 48.7578 45.8594C47.9505 47.0833 46.8177 48.0599 45.3594 48.7891ZM49.5781 69.8438C47.9115 71.4323 45.5547 72.2266 42.5078 72.2266H32.3516V55.1172H41.2969C44.8385 55.1172 47.5208 55.8333 49.3438 57.2656C51.1667 58.6719 52.0781 60.6641 52.0781 63.2422C52.0781 66.0286 51.2448 68.2292 49.5781 69.8438Z" fill="#FFCB00"/>
</svg>
