<svg width="79" height="106" viewBox="0 0 79 106" fill="none" xmlns="http://www.w3.org/2000/svg">
<path fill-rule="evenodd" clip-rule="evenodd" d="M9.5 0C4.25329 0 0 4.25329 0 9.5V96.5C0 101.747 4.25329 106 9.5 106H69.5C74.7467 106 79 101.747 79 96.5V9.5C79 4.2533 74.7467 0 69.5 0H9.5ZM7 9.5C7 8.11929 8.11929 7 9.5 7H69.5C70.8807 7 72 8.11929 72 9.5V96.5C72 97.8807 70.8807 99 69.5 99H9.5C8.11929 99 7 97.8807 7 96.5V9.5ZM21.7266 75.9922C22.0651 76.3307 22.599 76.5 23.3281 76.5H37.3516C43.862 76.5 49.0703 74.5729 52.9766 70.7188C56.8828 66.8646 58.8359 60.6797 58.8359 52.1641C58.8359 43.7005 56.8828 37.5417 52.9766 33.6875C49.0703 29.8333 43.862 27.9062 37.3516 27.9062H23.3281C22.599 27.9062 22.0651 28.0755 21.7266 28.4141C21.388 28.7266 21.2188 29.2474 21.2188 29.9766V74.4297C21.2188 75.1328 21.388 75.6536 21.7266 75.9922ZM48.2109 66.6562C45.3464 69.7031 41.5703 71.2266 36.8828 71.2266H27.3516V33.1797H36.8828C39.9036 33.1797 42.5859 33.8307 44.9297 35.1328C47.2734 36.4089 49.1224 38.4661 50.4766 41.3047C51.8307 44.1172 52.5078 47.737 52.5078 52.1641C52.5078 58.7526 51.0755 63.5833 48.2109 66.6562Z" fill="#FFCB00"/>
</svg>
