<svg width="79" height="106" viewBox="0 0 79 106" fill="none" xmlns="http://www.w3.org/2000/svg">
<path fill-rule="evenodd" clip-rule="evenodd" d="M9.5 0C4.25329 0 0 4.25329 0 9.5V96.5C0 101.747 4.25329 106 9.5 106H69.5C74.7467 106 79 101.747 79 96.5V9.5C79 4.2533 74.7467 0 69.5 0H9.5ZM7 9.5C7 8.11929 8.11929 7 9.5 7H69.5C70.8807 7 72 8.11929 72 9.5V96.5C72 97.8807 70.8807 99 69.5 99H9.5C8.11929 99 7 97.8807 7 96.5V9.5ZM25.7266 76.9922C26.0651 77.3307 26.599 77.5 27.3281 77.5H51.625C52.1198 77.5 52.4714 77.3307 52.6797 76.9922C52.9141 76.6536 53.0312 76.1328 53.0312 75.4297V74.2969C53.0312 73.5677 52.9141 73.0469 52.6797 72.7344C52.4714 72.3958 52.1198 72.2266 51.625 72.2266H31.3516V55.2344H49.4766C49.9714 55.2344 50.3229 55.0781 50.5312 54.7656C50.7656 54.4271 50.8828 53.8932 50.8828 53.1641V52.1094C50.8828 51.3802 50.7656 50.8464 50.5312 50.5078C50.3229 50.1693 49.9714 50 49.4766 50H31.3516V34.1797H51.5469C52.0417 34.1797 52.3932 34.0104 52.6016 33.6719C52.8359 33.3333 52.9531 32.8125 52.9531 32.1094V30.9766C52.9531 30.2214 52.8359 29.6875 52.6016 29.375C52.3932 29.0625 52.0417 28.9062 51.5469 28.9062H27.3281C26.599 28.9062 26.0651 29.0755 25.7266 29.4141C25.388 29.7266 25.2188 30.2474 25.2188 30.9766V75.4297C25.2188 76.1328 25.388 76.6536 25.7266 76.9922Z" fill="#FFCB00"/>
</svg>
