<svg width="87" height="114" viewBox="0 0 87 114" fill="none" xmlns="http://www.w3.org/2000/svg">
<g filter="url(#filter0_d_6_33)">
<path fill-rule="evenodd" clip-rule="evenodd" d="M13.5 0C8.25329 0 4 4.25329 4 9.5V96.5C4 101.747 8.25329 106 13.5 106H73.5C78.7467 106 83 101.747 83 96.5V9.5C83 4.2533 78.7467 0 73.5 0H13.5ZM11 9.5C11 8.11929 12.1193 7 13.5 7H73.5C74.8807 7 76 8.11929 76 9.5V96.5C76 97.8807 74.8807 99 73.5 99H13.5C12.1193 99 11 97.8807 11 96.5V9.5ZM31.2188 79.0938C31.2188 80.1094 32.1562 80.6172 34.0312 80.6172H34.5781C36.4271 80.6172 37.3516 80.1094 37.3516 79.0938V58.2344H53.9531C54.4219 58.2344 54.7734 58.0781 55.0078 57.7656C55.2422 57.4271 55.3594 56.8932 55.3594 56.1641V55.1094C55.3594 54.3802 55.2422 53.8464 55.0078 53.5078C54.7734 53.1693 54.4219 53 53.9531 53H37.3516V37.1797H55.2031C55.6979 37.1797 56.0495 37.0104 56.2578 36.6719C56.4661 36.3333 56.5703 35.8125 56.5703 35.1094V33.9766C56.5703 33.2474 56.4661 32.7266 56.2578 32.4141C56.0495 32.0755 55.6979 31.9062 55.2031 31.9062H33.3281C32.599 31.9062 32.0651 32.0755 31.7266 32.4141C31.388 32.7266 31.2188 33.2474 31.2188 33.9766V79.0938Z" fill="url(#paint0_linear_6_33)"/>
</g>
<defs>
<filter id="filter0_d_6_33" x="0" y="0" width="87" height="114" filterUnits="userSpaceOnUse" color-interpolation-filters="sRGB">
<feFlood flood-opacity="0" result="BackgroundImageFix"/>
<feColorMatrix in="SourceAlpha" type="matrix" values="0 0 0 0 0 0 0 0 0 0 0 0 0 0 0 0 0 0 127 0" result="hardAlpha"/>
<feOffset dy="4"/>
<feGaussianBlur stdDeviation="2"/>
<feComposite in2="hardAlpha" operator="out"/>
<feColorMatrix type="matrix" values="0 0 0 0 0 0 0 0 0 0 0 0 0 0 0 0 0 0 0.25 0"/>
<feBlend mode="normal" in2="BackgroundImageFix" result="effect1_dropShadow_6_33"/>
<feBlend mode="normal" in="SourceGraphic" in2="effect1_dropShadow_6_33" result="shape"/>
</filter>
<linearGradient id="paint0_linear_6_33" x1="43.5" y1="0" x2="43.5" y2="106" gradientUnits="userSpaceOnUse">
<stop stop-color="#FFCB00"/>
<stop offset="1" stop-color="#997A00"/>
</linearGradient>
</defs>
</svg>
