<svg width="79" height="106" viewBox="0 0 79 106" fill="none" xmlns="http://www.w3.org/2000/svg">
<path fill-rule="evenodd" clip-rule="evenodd" d="M9.5 0C4.25329 0 0 4.25329 0 9.5V96.5C0 101.747 4.25329 106 9.5 106H69.5C74.7467 106 79 101.747 79 96.5V9.5C79 4.2533 74.7467 0 69.5 0H9.5ZM7 9.5C7 8.11929 8.11929 7 9.5 7H69.5C70.8807 7 72 8.11929 72 9.5V96.5C72 97.8807 70.8807 99 69.5 99H9.5C8.11929 99 7 97.8807 7 96.5V9.5ZM25.9531 71.875C29.599 75.8854 34.9115 77.8906 41.8906 77.8906C46.4219 77.8906 50.1458 77.513 53.0625 76.7578C55.9792 75.9766 57.4375 74.6875 57.4375 72.8906V54.4922C57.4375 53.763 57.2682 53.2422 56.9297 52.9297C56.5911 52.5911 56.0573 52.4219 55.3281 52.4219H43.1797C42.6849 52.4219 42.3203 52.5911 42.0859 52.9297C41.8776 53.2422 41.7734 53.763 41.7734 54.4922V55.625C41.7734 56.3542 41.8776 56.888 42.0859 57.2266C42.3203 57.5391 42.6849 57.6953 43.1797 57.6953H51.3047V71.7188C50.3411 71.9792 49.0391 72.2005 47.3984 72.3828C45.7839 72.5391 44.1042 72.6172 42.3594 72.6172C36.6302 72.6172 32.5938 70.8464 30.25 67.3047C27.9323 63.737 26.7734 58.9583 26.7734 52.9688C26.7734 46.6146 28.0234 41.8229 30.5234 38.5938C33.0234 35.3385 37.2161 33.7109 43.1016 33.7109C45.237 33.7109 47.0469 33.9583 48.5312 34.4531C50.0156 34.9479 51.4349 35.5599 52.7891 36.2891C53.388 36.6276 53.7526 36.7969 53.8828 36.7969C54.1693 36.7969 54.4948 36.5495 54.8594 36.0547C55.224 35.5599 55.5365 34.987 55.7969 34.3359C56.0833 33.6849 56.2266 33.1641 56.2266 32.7734C56.2266 32.1484 55.5885 31.4974 54.3125 30.8203C53.0365 30.1432 51.3698 29.5833 49.3125 29.1406C47.2552 28.6719 45.1328 28.4375 42.9453 28.4375C27.9714 28.4375 20.4844 36.8229 20.4844 53.5938C20.4844 61.7448 22.3073 67.8385 25.9531 71.875Z" fill="#FFCB00"/>
</svg>
