<svg width="79" height="106" viewBox="0 0 79 106" fill="none" xmlns="http://www.w3.org/2000/svg">
<path fill-rule="evenodd" clip-rule="evenodd" d="M9.5 0C4.25329 0 0 4.25329 0 9.5V96.5C0 101.747 4.25329 106 9.5 106H69.5C74.7467 106 79 101.747 79 96.5V9.5C79 4.2533 74.7467 0 69.5 0H9.5ZM7 9.5C7 8.11929 8.11929 7 9.5 7H69.5C70.8807 7 72 8.11929 72 9.5V96.5C72 97.8807 70.8807 99 69.5 99H9.5C8.11929 99 7 97.8807 7 96.5V9.5ZM21.2188 76.0938C21.2188 77.1094 22.1562 77.6172 24.0312 77.6172H24.5781C26.4271 77.6172 27.3516 77.1094 27.3516 76.0938V55.1953H52.5078V76.0938C52.5078 76.6146 52.7292 77.0052 53.1719 77.2656C53.6146 77.5 54.3177 77.6172 55.2812 77.6172H55.8281C56.7917 77.6172 57.4948 77.5 57.9375 77.2656C58.3802 77.0052 58.6016 76.6146 58.6016 76.0938V30.2734C58.6016 29.2318 57.6771 28.7109 55.8281 28.7109H55.2812C53.4323 28.7109 52.5078 29.2318 52.5078 30.2734V49.9219H27.3516V30.2734C27.3516 29.2318 26.4271 28.7109 24.5781 28.7109H24.0312C22.1562 28.7109 21.2188 29.2318 21.2188 30.2734V76.0938Z" fill="#FFCB00"/>
</svg>
