<svg width="87" height="114" viewBox="0 0 87 114" fill="none" xmlns="http://www.w3.org/2000/svg">
<g filter="url(#filter0_d_6_39)">
<path fill-rule="evenodd" clip-rule="evenodd" d="M13.5 0C8.25329 0 4 4.25329 4 9.5V96.5C4 101.747 8.25329 106 13.5 106H73.5C78.7467 106 83 101.747 83 96.5V9.5C83 4.2533 78.7467 0 73.5 0H13.5ZM11 9.5C11 8.11929 12.1193 7 13.5 7H73.5C74.8807 7 76 8.11929 76 9.5V96.5C76 97.8807 74.8807 99 73.5 99H13.5C12.1193 99 11 97.8807 11 96.5V9.5ZM25.2188 76.0938C25.2188 77.1094 26.1562 77.6172 28.0312 77.6172H28.5781C30.4271 77.6172 31.3516 77.1094 31.3516 76.0938V55.1953H56.5078V76.0938C56.5078 76.6146 56.7292 77.0052 57.1719 77.2656C57.6146 77.5 58.3177 77.6172 59.2812 77.6172H59.8281C60.7917 77.6172 61.4948 77.5 61.9375 77.2656C62.3802 77.0052 62.6016 76.6146 62.6016 76.0938V30.2734C62.6016 29.2318 61.6771 28.7109 59.8281 28.7109H59.2812C57.4323 28.7109 56.5078 29.2318 56.5078 30.2734V49.9219H31.3516V30.2734C31.3516 29.2318 30.4271 28.7109 28.5781 28.7109H28.0312C26.1562 28.7109 25.2188 29.2318 25.2188 30.2734V76.0938Z" fill="url(#paint0_linear_6_39)"/>
</g>
<defs>
<filter id="filter0_d_6_39" x="0" y="0" width="87" height="114" filterUnits="userSpaceOnUse" color-interpolation-filters="sRGB">
<feFlood flood-opacity="0" result="BackgroundImageFix"/>
<feColorMatrix in="SourceAlpha" type="matrix" values="0 0 0 0 0 0 0 0 0 0 0 0 0 0 0 0 0 0 127 0" result="hardAlpha"/>
<feOffset dy="4"/>
<feGaussianBlur stdDeviation="2"/>
<feComposite in2="hardAlpha" operator="out"/>
<feColorMatrix type="matrix" values="0 0 0 0 0 0 0 0 0 0 0 0 0 0 0 0 0 0 0.25 0"/>
<feBlend mode="normal" in2="BackgroundImageFix" result="effect1_dropShadow_6_39"/>
<feBlend mode="normal" in="SourceGraphic" in2="effect1_dropShadow_6_39" result="shape"/>
</filter>
<linearGradient id="paint0_linear_6_39" x1="43.5" y1="0" x2="43.5" y2="106" gradientUnits="userSpaceOnUse">
<stop stop-color="#FFCB00"/>
<stop offset="1" stop-color="#997A00"/>
</linearGradient>
</defs>
</svg>
