<svg width="87" height="114" viewBox="0 0 87 114" fill="none" xmlns="http://www.w3.org/2000/svg">
<g filter="url(#filter0_d_6_81)">
<path fill-rule="evenodd" clip-rule="evenodd" d="M13.5 0C8.25329 0 4 4.25329 4 9.5V96.5C4 101.747 8.25329 106 13.5 106H73.5C78.7467 106 83 101.747 83 96.5V9.5C83 4.2533 78.7467 0 73.5 0H13.5ZM11 9.5C11 8.11929 12.1193 7 13.5 7H73.5C74.8807 7 76 8.11929 76 9.5V96.5C76 97.8807 74.8807 99 73.5 99H13.5C12.1193 99 11 97.8807 11 96.5V9.5ZM34.0391 77.4219C35.4974 77.7344 37.138 77.8906 38.9609 77.8906C44.0651 77.8906 47.7891 76.6016 50.1328 74.0234C52.5026 71.4453 53.6875 67.8516 53.6875 63.2422V30.2734C53.6875 29.2318 52.75 28.7109 50.875 28.7109H50.3281C48.4792 28.7109 47.5547 29.2318 47.5547 30.2734V63.9453C47.5547 66.9401 46.7865 69.1146 45.25 70.4688C43.7396 71.8229 41.2656 72.5 37.8281 72.5C37.1771 72.5 36.5911 72.4609 36.0703 72.3828C35.5755 72.2786 34.9896 72.1484 34.3125 71.9922C33.7917 71.888 33.5052 71.8359 33.4531 71.8359C33.1146 71.8359 32.8281 72.1094 32.5938 72.6562C32.3854 73.2031 32.2161 73.8021 32.0859 74.4531C31.9557 75.1042 31.8906 75.5208 31.8906 75.7031C31.8906 76.5365 32.6068 77.1094 34.0391 77.4219Z" fill="url(#paint0_linear_6_81)"/>
</g>
<defs>
<filter id="filter0_d_6_81" x="0" y="0" width="87" height="114" filterUnits="userSpaceOnUse" color-interpolation-filters="sRGB">
<feFlood flood-opacity="0" result="BackgroundImageFix"/>
<feColorMatrix in="SourceAlpha" type="matrix" values="0 0 0 0 0 0 0 0 0 0 0 0 0 0 0 0 0 0 127 0" result="hardAlpha"/>
<feOffset dy="4"/>
<feGaussianBlur stdDeviation="2"/>
<feComposite in2="hardAlpha" operator="out"/>
<feColorMatrix type="matrix" values="0 0 0 0 0 0 0 0 0 0 0 0 0 0 0 0 0 0 0.25 0"/>
<feBlend mode="normal" in2="BackgroundImageFix" result="effect1_dropShadow_6_81"/>
<feBlend mode="normal" in="SourceGraphic" in2="effect1_dropShadow_6_81" result="shape"/>
</filter>
<linearGradient id="paint0_linear_6_81" x1="43.5" y1="0" x2="43.5" y2="106" gradientUnits="userSpaceOnUse">
<stop stop-color="#FFCB00"/>
<stop offset="1" stop-color="#997A00"/>
</linearGradient>
</defs>
</svg>
