<svg width="79" height="106" viewBox="0 0 79 106" fill="none" xmlns="http://www.w3.org/2000/svg">
<path fill-rule="evenodd" clip-rule="evenodd" d="M9.5 0C4.25329 0 0 4.25329 0 9.5V96.5C0 101.747 4.25329 106 9.5 106H69.5C74.7467 106 79 101.747 79 96.5V9.5C79 4.2533 74.7467 0 69.5 0H9.5ZM7 9.5C7 8.11929 8.11929 7 9.5 7H69.5C70.8807 7 72 8.11929 72 9.5V96.5C72 97.8807 70.8807 99 69.5 99H9.5C8.11929 99 7 97.8807 7 96.5V9.5ZM26.2188 76.0938C26.2188 77.1094 27.1562 77.6172 29.0312 77.6172H29.5781C31.4271 77.6172 32.3516 77.1094 32.3516 76.0938V54.375H32.625L52.5078 76.7188C52.8724 77.1094 53.3411 77.3568 53.9141 77.4609C54.513 77.5651 55.3073 77.6172 56.2969 77.6172H57.1562C58.276 77.6172 59.0573 77.5521 59.5 77.4219C59.9688 77.2917 60.2031 77.0312 60.2031 76.6406C60.2031 76.3542 59.9948 75.9896 59.5781 75.5469L38.5625 52.6953L55.9062 31.0547C56.349 30.5339 56.5703 30.0651 56.5703 29.6484C56.5703 29.388 56.362 29.1667 55.9453 28.9844C55.5286 28.8021 54.9297 28.7109 54.1484 28.7109H53.4844C52.651 28.7109 51.8828 28.8021 51.1797 28.9844C50.5026 29.1406 50.0078 29.388 49.6953 29.7266L32.625 51.5234H32.3516V30.2734C32.3516 29.2318 31.4271 28.7109 29.5781 28.7109H29.0312C27.1562 28.7109 26.2188 29.2318 26.2188 30.2734V76.0938Z" fill="#FFCB00"/>
</svg>
