<svg width="79" height="106" viewBox="0 0 79 106" fill="none" xmlns="http://www.w3.org/2000/svg">
<path fill-rule="evenodd" clip-rule="evenodd" d="M9.5 0C4.25329 0 0 4.25329 0 9.5V96.5C0 101.747 4.25329 106 9.5 106H69.5C74.7467 106 79 101.747 79 96.5V9.5C79 4.2533 74.7467 0 69.5 0H9.5ZM7 9.5C7 8.11929 8.11929 7 9.5 7H69.5C70.8807 7 72 8.11929 72 9.5V96.5C72 97.8807 70.8807 99 69.5 99H9.5C8.11929 99 7 97.8807 7 96.5V9.5ZM27.7266 76.9922C28.0651 77.3307 28.599 77.5 29.3281 77.5H52.4531C52.9479 77.5 53.2995 77.3307 53.5078 76.9922C53.7161 76.6536 53.8203 76.1328 53.8203 75.4297V74.2969C53.8203 73.5677 53.7161 73.0469 53.5078 72.7344C53.2995 72.3958 52.9479 72.2266 52.4531 72.2266H33.3516V30.2734C33.3516 29.2318 32.4271 28.7109 30.5781 28.7109H30.0312C28.1562 28.7109 27.2188 29.2318 27.2188 30.2734V75.4297C27.2188 76.1328 27.388 76.6536 27.7266 76.9922Z" fill="#FFCB00"/>
</svg>
