<svg width="87" height="114" viewBox="0 0 87 114" fill="none" xmlns="http://www.w3.org/2000/svg">
<g filter="url(#filter0_d_6_45)">
<path fill-rule="evenodd" clip-rule="evenodd" d="M13.5 0C8.25329 0 4 4.25329 4 9.5V96.5C4 101.747 8.25329 106 13.5 106H73.5C78.7467 106 83 101.747 83 96.5V9.5C83 4.2533 78.7467 0 73.5 0H13.5ZM11 9.5C11 8.11929 12.1193 7 13.5 7H73.5C74.8807 7 76 8.11929 76 9.5V96.5C76 97.8807 74.8807 99 73.5 99H13.5C12.1193 99 11 97.8807 11 96.5V9.5ZM31.7266 76.9922C32.0651 77.3307 32.599 77.5 33.3281 77.5H56.4531C56.9479 77.5 57.2995 77.3307 57.5078 76.9922C57.7161 76.6536 57.8203 76.1328 57.8203 75.4297V74.2969C57.8203 73.5677 57.7161 73.0469 57.5078 72.7344C57.2995 72.3958 56.9479 72.2266 56.4531 72.2266H37.3516V30.2734C37.3516 29.2318 36.4271 28.7109 34.5781 28.7109H34.0312C32.1562 28.7109 31.2188 29.2318 31.2188 30.2734V75.4297C31.2188 76.1328 31.388 76.6536 31.7266 76.9922Z" fill="url(#paint0_linear_6_45)"/>
</g>
<defs>
<filter id="filter0_d_6_45" x="0" y="0" width="87" height="114" filterUnits="userSpaceOnUse" color-interpolation-filters="sRGB">
<feFlood flood-opacity="0" result="BackgroundImageFix"/>
<feColorMatrix in="SourceAlpha" type="matrix" values="0 0 0 0 0 0 0 0 0 0 0 0 0 0 0 0 0 0 127 0" result="hardAlpha"/>
<feOffset dy="4"/>
<feGaussianBlur stdDeviation="2"/>
<feComposite in2="hardAlpha" operator="out"/>
<feColorMatrix type="matrix" values="0 0 0 0 0 0 0 0 0 0 0 0 0 0 0 0 0 0 0.25 0"/>
<feBlend mode="normal" in2="BackgroundImageFix" result="effect1_dropShadow_6_45"/>
<feBlend mode="normal" in="SourceGraphic" in2="effect1_dropShadow_6_45" result="shape"/>
</filter>
<linearGradient id="paint0_linear_6_45" x1="43.5" y1="0" x2="43.5" y2="106" gradientUnits="userSpaceOnUse">
<stop stop-color="#FFCB00"/>
<stop offset="1" stop-color="#997A00"/>
</linearGradient>
</defs>
</svg>
