<svg width="87" height="114" viewBox="0 0 87 114" fill="none" xmlns="http://www.w3.org/2000/svg">
<g filter="url(#filter0_d_6_63)">
<path fill-rule="evenodd" clip-rule="evenodd" d="M13.5 0C8.25329 0 4 4.25329 4 9.5V96.5C4 101.747 8.25329 106 13.5 106H73.5C78.7467 106 83 101.747 83 96.5V9.5C83 4.2533 78.7467 0 73.5 0H13.5ZM11 9.5C11 8.11929 12.1193 7 13.5 7H73.5C74.8807 7 76 8.11929 76 9.5V96.5C76 97.8807 74.8807 99 73.5 99H13.5C12.1193 99 11 97.8807 11 96.5V9.5ZM21.4141 77.2656C21.8568 77.5 22.5729 77.6172 23.5625 77.6172H24.0312C25.8802 77.6172 26.8047 77.1094 26.8047 76.0938V38.3203L40.9453 63.0469C41.2839 63.6458 41.8047 63.9453 42.5078 63.9453H45.2812C45.6458 63.9453 45.9453 63.8802 46.1797 63.75C46.4141 63.5938 46.6224 63.3594 46.8047 63.0469L60.6328 39.0234L60.75 38.7109V76.0938C60.75 76.6146 60.9714 77.0052 61.4141 77.2656C61.8568 77.5 62.5729 77.6172 63.5625 77.6172H64.0312C65.8802 77.6172 66.8047 77.1094 66.8047 76.0938V30.2734C66.8047 29.2318 65.8802 28.7109 64.0312 28.7109H61.7266C60.2422 28.7109 59.2786 29.1406 58.8359 30L45.6719 53.1641L43.875 57.1484L42.0781 52.7734L28.9531 30C28.5365 29.1406 27.5599 28.7109 26.0234 28.7109H23.5625C21.6875 28.7109 20.75 29.2318 20.75 30.2734V76.0938C20.75 76.6146 20.9714 77.0052 21.4141 77.2656Z" fill="url(#paint0_linear_6_63)"/>
</g>
<defs>
<filter id="filter0_d_6_63" x="0" y="0" width="87" height="114" filterUnits="userSpaceOnUse" color-interpolation-filters="sRGB">
<feFlood flood-opacity="0" result="BackgroundImageFix"/>
<feColorMatrix in="SourceAlpha" type="matrix" values="0 0 0 0 0 0 0 0 0 0 0 0 0 0 0 0 0 0 127 0" result="hardAlpha"/>
<feOffset dy="4"/>
<feGaussianBlur stdDeviation="2"/>
<feComposite in2="hardAlpha" operator="out"/>
<feColorMatrix type="matrix" values="0 0 0 0 0 0 0 0 0 0 0 0 0 0 0 0 0 0 0.25 0"/>
<feBlend mode="normal" in2="BackgroundImageFix" result="effect1_dropShadow_6_63"/>
<feBlend mode="normal" in="SourceGraphic" in2="effect1_dropShadow_6_63" result="shape"/>
</filter>
<linearGradient id="paint0_linear_6_63" x1="43.5" y1="0" x2="43.5" y2="106" gradientUnits="userSpaceOnUse">
<stop stop-color="#FFCB00"/>
<stop offset="1" stop-color="#997A00"/>
</linearGradient>
</defs>
</svg>
