<svg width="79" height="106" viewBox="0 0 79 106" fill="none" xmlns="http://www.w3.org/2000/svg">
<path fill-rule="evenodd" clip-rule="evenodd" d="M9.5 0C4.25329 0 0 4.25329 0 9.5V96.5C0 101.747 4.25329 106 9.5 106H69.5C74.7467 106 79 101.747 79 96.5V9.5C79 4.2533 74.7467 0 69.5 0H9.5ZM7 9.5C7 8.11929 8.11929 7 9.5 7H69.5C70.8807 7 72 8.11929 72 9.5V96.5C72 97.8807 70.8807 99 69.5 99H9.5C8.11929 99 7 97.8807 7 96.5V9.5ZM21.4141 77.2656C21.8568 77.5 22.5729 77.6172 23.5625 77.6172H24.0312C25.8802 77.6172 26.8047 77.1094 26.8047 76.0938V38.5156L28.6797 42.1094L51.5703 76.6406C51.7786 76.9792 52.0781 77.2266 52.4688 77.3828C52.8594 77.5391 53.3802 77.6172 54.0312 77.6172H55.4375C56.375 77.6172 57.0651 77.5 57.5078 77.2656C57.9505 77.0052 58.1719 76.6146 58.1719 76.0938V30.2734C58.1719 29.2318 57.2604 28.7109 55.4375 28.7109H54.8906C53.0677 28.7109 52.1562 29.2318 52.1562 30.2734V67.4219L50.0859 63.5156L27.8984 30.0391C27.5599 29.5703 27.1693 29.2318 26.7266 29.0234C26.3099 28.8151 25.737 28.7109 25.0078 28.7109H23.5625C21.6875 28.7109 20.75 29.2318 20.75 30.2734V76.0938C20.75 76.6146 20.9714 77.0052 21.4141 77.2656Z" fill="#FFCB00"/>
</svg>
