<svg width="79" height="106" viewBox="0 0 79 106" fill="none" xmlns="http://www.w3.org/2000/svg">
<path fill-rule="evenodd" clip-rule="evenodd" d="M9.5 0C4.25329 0 0 4.25329 0 9.5V96.5C0 101.747 4.25329 106 9.5 106H69.5C74.7467 106 79 101.747 79 96.5V9.5C79 4.2533 74.7467 0 69.5 0H9.5ZM7 9.5C7 8.11929 8.11929 7 9.5 7H69.5C70.8807 7 72 8.11929 72 9.5V96.5C72 97.8807 70.8807 99 69.5 99H9.5C8.11929 99 7 97.8807 7 96.5V9.5ZM11.167 69.3418C11.4658 69.5 11.9492 69.5791 12.6172 69.5791H12.9336C14.1816 69.5791 14.8057 69.2363 14.8057 68.5508V43.1855L16.0713 45.6113L31.5225 68.9199C31.6631 69.1484 31.8652 69.3154 32.1289 69.4209C32.3926 69.5264 32.7441 69.5791 33.1836 69.5791H34.1328C34.7656 69.5791 35.2314 69.5 35.5303 69.3418C35.8291 69.166 35.9785 68.9023 35.9785 68.5508V37.6221C35.9785 36.9189 35.3633 36.5674 34.1328 36.5674H33.7637C32.5332 36.5674 31.918 36.9189 31.918 37.6221V62.6973L30.5205 60.0605L15.5439 37.4639C15.3154 37.1475 15.0518 36.9189 14.7529 36.7783C14.4717 36.6377 14.085 36.5674 13.5928 36.5674H12.6172C11.3516 36.5674 10.7188 36.9189 10.7188 37.6221V68.5508C10.7188 68.9023 10.8682 69.166 11.167 69.3418ZM46.5781 65.7031C49.0391 68.4102 52.625 69.7637 57.3359 69.7637C60.3945 69.7637 62.9082 69.5088 64.877 68.999C66.8457 68.4717 67.8301 67.6016 67.8301 66.3887V53.9697C67.8301 53.4775 67.7158 53.126 67.4873 52.915C67.2588 52.6865 66.8984 52.5723 66.4062 52.5723H58.2061C57.8721 52.5723 57.626 52.6865 57.4678 52.915C57.3271 53.126 57.2568 53.4775 57.2568 53.9697V54.7344C57.2568 55.2266 57.3271 55.5869 57.4678 55.8154C57.626 56.0264 57.8721 56.1318 58.2061 56.1318H63.6904V65.5977C63.04 65.7734 62.1611 65.9229 61.0537 66.0459C59.9639 66.1514 58.8301 66.2041 57.6523 66.2041C53.7852 66.2041 51.0605 65.0088 49.4785 62.6182C47.9141 60.21 47.1318 56.9844 47.1318 52.9414C47.1318 48.6523 47.9756 45.418 49.6631 43.2383C51.3506 41.041 54.1807 39.9424 58.1533 39.9424C59.5947 39.9424 60.8164 40.1094 61.8184 40.4434C62.8203 40.7773 63.7783 41.1904 64.6924 41.6826C65.0967 41.9111 65.3428 42.0254 65.4307 42.0254C65.624 42.0254 65.8438 41.8584 66.0898 41.5244C66.3359 41.1904 66.5469 40.8037 66.7227 40.3643C66.916 39.9248 67.0127 39.5732 67.0127 39.3096C67.0127 38.8877 66.582 38.4482 65.7207 37.9912C64.8594 37.5342 63.7344 37.1562 62.3457 36.8574C60.957 36.541 59.5244 36.3828 58.0479 36.3828C47.9404 36.3828 42.8867 42.043 42.8867 53.3633C42.8867 58.8652 44.1172 62.9785 46.5781 65.7031Z" fill="#FFCB00"/>
</svg>
