<svg width="87" height="114" viewBox="0 0 87 114" fill="none" xmlns="http://www.w3.org/2000/svg">
<g filter="url(#filter0_d_6_54)">
<path fill-rule="evenodd" clip-rule="evenodd" d="M13.5 0C8.25329 0 4 4.25329 4 9.5V96.5C4 101.747 8.25329 106 13.5 106H73.5C78.7467 106 83 101.747 83 96.5V9.5C83 4.2533 78.7467 0 73.5 0H13.5ZM11 9.5C11 8.11929 12.1193 7 13.5 7H73.5C74.8807 7 76 8.11929 76 9.5V96.5C76 97.8807 74.8807 99 73.5 99H13.5C12.1193 99 11 97.8807 11 96.5V9.5ZM15.167 69.3418C15.4658 69.5 15.9492 69.5791 16.6172 69.5791H16.9336C18.1816 69.5791 18.8057 69.2363 18.8057 68.5508V43.1855L20.0713 45.6113L35.5225 68.9199C35.6631 69.1484 35.8652 69.3154 36.1289 69.4209C36.3926 69.5264 36.7441 69.5791 37.1836 69.5791H38.1328C38.7656 69.5791 39.2314 69.5 39.5303 69.3418C39.8291 69.166 39.9785 68.9023 39.9785 68.5508V37.6221C39.9785 36.9189 39.3633 36.5674 38.1328 36.5674H37.7637C36.5332 36.5674 35.918 36.9189 35.918 37.6221V62.6973L34.5205 60.0605L19.5439 37.4639C19.3154 37.1475 19.0518 36.9189 18.7529 36.7783C18.4717 36.6377 18.085 36.5674 17.5928 36.5674H16.6172C15.3516 36.5674 14.7188 36.9189 14.7188 37.6221V68.5508C14.7188 68.9023 14.8682 69.166 15.167 69.3418ZM50.5781 65.7031C53.0391 68.4102 56.625 69.7637 61.3359 69.7637C64.3945 69.7637 66.9082 69.5088 68.877 68.999C70.8457 68.4717 71.8301 67.6016 71.8301 66.3887V53.9697C71.8301 53.4775 71.7158 53.126 71.4873 52.915C71.2588 52.6865 70.8984 52.5723 70.4062 52.5723H62.2061C61.8721 52.5723 61.626 52.6865 61.4678 52.915C61.3271 53.126 61.2568 53.4775 61.2568 53.9697V54.7344C61.2568 55.2266 61.3271 55.5869 61.4678 55.8154C61.626 56.0264 61.8721 56.1318 62.2061 56.1318H67.6904V65.5977C67.04 65.7734 66.1611 65.9229 65.0537 66.0459C63.9639 66.1514 62.8301 66.2041 61.6523 66.2041C57.7852 66.2041 55.0605 65.0088 53.4785 62.6182C51.9141 60.21 51.1318 56.9844 51.1318 52.9414C51.1318 48.6523 51.9756 45.418 53.6631 43.2383C55.3506 41.041 58.1807 39.9424 62.1533 39.9424C63.5947 39.9424 64.8164 40.1094 65.8184 40.4434C66.8203 40.7773 67.7783 41.1904 68.6924 41.6826C69.0967 41.9111 69.3428 42.0254 69.4307 42.0254C69.624 42.0254 69.8438 41.8584 70.0898 41.5244C70.3359 41.1904 70.5469 40.8037 70.7227 40.3643C70.916 39.9248 71.0127 39.5732 71.0127 39.3096C71.0127 38.8877 70.582 38.4482 69.7207 37.9912C68.8594 37.5342 67.7344 37.1562 66.3457 36.8574C64.957 36.541 63.5244 36.3828 62.0479 36.3828C51.9404 36.3828 46.8867 42.043 46.8867 53.3633C46.8867 58.8652 48.1172 62.9785 50.5781 65.7031Z" fill="url(#paint0_linear_6_54)"/>
</g>
<defs>
<filter id="filter0_d_6_54" x="0" y="0" width="87" height="114" filterUnits="userSpaceOnUse" color-interpolation-filters="sRGB">
<feFlood flood-opacity="0" result="BackgroundImageFix"/>
<feColorMatrix in="SourceAlpha" type="matrix" values="0 0 0 0 0 0 0 0 0 0 0 0 0 0 0 0 0 0 127 0" result="hardAlpha"/>
<feOffset dy="4"/>
<feGaussianBlur stdDeviation="2"/>
<feComposite in2="hardAlpha" operator="out"/>
<feColorMatrix type="matrix" values="0 0 0 0 0 0 0 0 0 0 0 0 0 0 0 0 0 0 0.25 0"/>
<feBlend mode="normal" in2="BackgroundImageFix" result="effect1_dropShadow_6_54"/>
<feBlend mode="normal" in="SourceGraphic" in2="effect1_dropShadow_6_54" result="shape"/>
</filter>
<linearGradient id="paint0_linear_6_54" x1="43.5" y1="0" x2="43.5" y2="106" gradientUnits="userSpaceOnUse">
<stop stop-color="#FFCB00"/>
<stop offset="1" stop-color="#997A00"/>
</linearGradient>
</defs>
</svg>
