<svg width="79" height="106" viewBox="0 0 79 106" fill="none" xmlns="http://www.w3.org/2000/svg">
<path fill-rule="evenodd" clip-rule="evenodd" d="M9.5 0C4.25329 0 0 4.25329 0 9.5V96.5C0 101.747 4.25329 106 9.5 106H69.5C74.7467 106 79 101.747 79 96.5V9.5C79 4.2533 74.7467 0 69.5 0H9.5ZM7 9.5C7 8.11929 8.11929 7 9.5 7H69.5C70.8807 7 72 8.11929 72 9.5V96.5C72 97.8807 70.8807 99 69.5 99H9.5C8.11929 99 7 97.8807 7 96.5V9.5ZM23.9531 71.5625C27.599 75.7812 32.8984 77.8906 39.8516 77.8906C46.8568 77.8906 52.1823 75.7812 55.8281 71.5625C59.474 67.3438 61.2969 61.1719 61.2969 53.0469C61.2969 44.9479 59.474 38.8281 55.8281 34.6875C52.1823 30.5208 46.8568 28.4375 39.8516 28.4375C32.8724 28.4375 27.5599 30.5208 23.9141 34.6875C20.2943 38.8281 18.4844 44.9479 18.4844 53.0469C18.4844 61.1719 20.3073 67.3438 23.9531 71.5625ZM51.1016 67.6172C48.4974 70.9505 44.7474 72.6172 39.8516 72.6172C34.9557 72.6172 31.2188 70.9505 28.6406 67.6172C26.0625 64.2839 24.7734 59.4271 24.7734 53.0469C24.7734 46.6927 26.0625 41.888 28.6406 38.6328C31.2188 35.3516 34.9557 33.7109 39.8516 33.7109C44.7734 33.7109 48.5234 35.3516 51.1016 38.6328C53.7057 41.888 55.0078 46.6927 55.0078 53.0469C55.0078 59.401 53.7057 64.2578 51.1016 67.6172Z" fill="#FFCB00"/>
</svg>
