<svg width="87" height="114" viewBox="0 0 87 114" fill="none" xmlns="http://www.w3.org/2000/svg">
<g filter="url(#filter0_d_6_48)">
<path fill-rule="evenodd" clip-rule="evenodd" d="M13.5 0C8.25329 0 4 4.25329 4 9.5V96.5C4 101.747 8.25329 106 13.5 106H73.5C78.7467 106 83 101.747 83 96.5V9.5C83 4.2533 78.7467 0 73.5 0H13.5ZM11 9.5C11 8.11929 12.1193 7 13.5 7H73.5C74.8807 7 76 8.11929 76 9.5V96.5C76 97.8807 74.8807 99 73.5 99H13.5C12.1193 99 11 97.8807 11 96.5V9.5ZM27.9531 71.5625C31.599 75.7812 36.8984 77.8906 43.8516 77.8906C50.8568 77.8906 56.1823 75.7812 59.8281 71.5625C63.474 67.3438 65.2969 61.1719 65.2969 53.0469C65.2969 44.9479 63.474 38.8281 59.8281 34.6875C56.1823 30.5208 50.8568 28.4375 43.8516 28.4375C36.8724 28.4375 31.5599 30.5208 27.9141 34.6875C24.2943 38.8281 22.4844 44.9479 22.4844 53.0469C22.4844 61.1719 24.3073 67.3438 27.9531 71.5625ZM55.1016 67.6172C52.4974 70.9505 48.7474 72.6172 43.8516 72.6172C38.9557 72.6172 35.2188 70.9505 32.6406 67.6172C30.0625 64.2839 28.7734 59.4271 28.7734 53.0469C28.7734 46.6927 30.0625 41.888 32.6406 38.6328C35.2188 35.3516 38.9557 33.7109 43.8516 33.7109C48.7734 33.7109 52.5234 35.3516 55.1016 38.6328C57.7057 41.888 59.0078 46.6927 59.0078 53.0469C59.0078 59.401 57.7057 64.2578 55.1016 67.6172Z" fill="url(#paint0_linear_6_48)"/>
</g>
<defs>
<filter id="filter0_d_6_48" x="0" y="0" width="87" height="114" filterUnits="userSpaceOnUse" color-interpolation-filters="sRGB">
<feFlood flood-opacity="0" result="BackgroundImageFix"/>
<feColorMatrix in="SourceAlpha" type="matrix" values="0 0 0 0 0 0 0 0 0 0 0 0 0 0 0 0 0 0 127 0" result="hardAlpha"/>
<feOffset dy="4"/>
<feGaussianBlur stdDeviation="2"/>
<feComposite in2="hardAlpha" operator="out"/>
<feColorMatrix type="matrix" values="0 0 0 0 0 0 0 0 0 0 0 0 0 0 0 0 0 0 0.25 0"/>
<feBlend mode="normal" in2="BackgroundImageFix" result="effect1_dropShadow_6_48"/>
<feBlend mode="normal" in="SourceGraphic" in2="effect1_dropShadow_6_48" result="shape"/>
</filter>
<linearGradient id="paint0_linear_6_48" x1="43.5" y1="0" x2="43.5" y2="106" gradientUnits="userSpaceOnUse">
<stop stop-color="#FFCB00"/>
<stop offset="1" stop-color="#997A00"/>
</linearGradient>
</defs>
</svg>
