<svg width="87" height="114" viewBox="0 0 87 114" fill="none" xmlns="http://www.w3.org/2000/svg">
<g filter="url(#filter0_d_6_66)">
<path fill-rule="evenodd" clip-rule="evenodd" d="M13.5 0C8.25329 0 4 4.25329 4 9.5V96.5C4 101.747 8.25329 106 13.5 106H73.5C78.7467 106 83 101.747 83 96.5V9.5C83 4.2533 78.7467 0 73.5 0H13.5ZM11 9.5C11 8.11929 12.1193 7 13.5 7H73.5C74.8807 7 76 8.11929 76 9.5V96.5C76 97.8807 74.8807 99 73.5 99H13.5C12.1193 99 11 97.8807 11 96.5V9.5ZM31.0625 75.2656C31.5052 75.5 32.2083 75.6172 33.1719 75.6172H33.7578C34.6953 75.6172 35.3854 75.5 35.8281 75.2656C36.2708 75.0052 36.4922 74.6146 36.4922 74.0938V54.7969H47.2734C49.0703 54.7969 51.0885 54.4453 53.3281 53.7422C55.5677 53.013 57.5859 51.5938 59.3828 49.4844C61.1797 47.349 62.0781 44.3542 62.0781 40.5C62.0781 35.3177 60.5026 31.763 57.3516 29.8359C54.2266 27.8828 50.6328 26.9062 46.5703 26.9062H32.5078C31.7786 26.9062 31.2448 27.0625 30.9062 27.375C30.5938 27.6875 30.4375 28.2214 30.4375 28.9766V74.0938C30.4375 74.6146 30.6458 75.0052 31.0625 75.2656ZM51.0234 48.7812C49.7474 49.276 48.5234 49.5234 47.3516 49.5234H36.4922V32.1797H46.375C48.9531 32.1797 51.1536 32.7917 52.9766 34.0156C54.8255 35.2396 55.75 37.401 55.75 40.5C55.75 42.8177 55.2812 44.6536 54.3438 46.0078C53.4062 47.3359 52.2995 48.2604 51.0234 48.7812Z" fill="url(#paint0_linear_6_66)"/>
</g>
<defs>
<filter id="filter0_d_6_66" x="0" y="0" width="87" height="114" filterUnits="userSpaceOnUse" color-interpolation-filters="sRGB">
<feFlood flood-opacity="0" result="BackgroundImageFix"/>
<feColorMatrix in="SourceAlpha" type="matrix" values="0 0 0 0 0 0 0 0 0 0 0 0 0 0 0 0 0 0 127 0" result="hardAlpha"/>
<feOffset dy="4"/>
<feGaussianBlur stdDeviation="2"/>
<feComposite in2="hardAlpha" operator="out"/>
<feColorMatrix type="matrix" values="0 0 0 0 0 0 0 0 0 0 0 0 0 0 0 0 0 0 0.25 0"/>
<feBlend mode="normal" in2="BackgroundImageFix" result="effect1_dropShadow_6_66"/>
<feBlend mode="normal" in="SourceGraphic" in2="effect1_dropShadow_6_66" result="shape"/>
</filter>
<linearGradient id="paint0_linear_6_66" x1="43.5" y1="0" x2="43.5" y2="106" gradientUnits="userSpaceOnUse">
<stop stop-color="#FFCB00"/>
<stop offset="1" stop-color="#997A00"/>
</linearGradient>
</defs>
</svg>
