<svg width="87" height="114" viewBox="0 0 87 114" fill="none" xmlns="http://www.w3.org/2000/svg">
<g filter="url(#filter0_d_6_72)">
<path fill-rule="evenodd" clip-rule="evenodd" d="M13.5 0C8.25329 0 4 4.25329 4 9.5V96.5C4 101.747 8.25329 106 13.5 106H73.5C78.7467 106 83 101.747 83 96.5V9.5C83 4.2533 78.7467 0 73.5 0H13.5ZM11 9.5C11 8.11929 12.1193 7 13.5 7H73.5C74.8807 7 76 8.11929 76 9.5V96.5C76 97.8807 74.8807 99 73.5 99H13.5C12.1193 99 11 97.8807 11 96.5V9.5ZM36.3047 75.0703C38.5182 75.6172 40.901 75.8906 43.4531 75.8906C46.5521 75.8906 49.2604 75.3568 51.5781 74.2891C53.9219 73.1953 55.7188 71.6328 56.9688 69.6016C58.2448 67.5703 58.8828 65.1875 58.8828 62.4531C58.8828 59.5365 58.2578 57.1406 57.0078 55.2656C55.7839 53.3906 54.2865 51.9583 52.5156 50.9688C50.7708 49.9531 48.5182 48.9115 45.7578 47.8438C45.2891 47.6615 44.9896 47.5573 44.8594 47.5312C42.8542 46.776 41.2917 46.112 40.1719 45.5391C39.0521 44.9661 38.1276 44.1979 37.3984 43.2344C36.6693 42.2708 36.3047 41.0469 36.3047 39.5625C36.3047 37.0885 37.125 35.1615 38.7656 33.7812C40.4323 32.401 42.6068 31.7109 45.2891 31.7109C46.9297 31.7109 48.3229 31.9062 49.4688 32.2969C50.6146 32.6615 51.7734 33.1562 52.9453 33.7812C53.6484 34.1719 54.1172 34.3672 54.3516 34.3672C54.5599 34.3672 54.8464 34.1328 55.2109 33.6641C55.5755 33.1953 55.888 32.6745 56.1484 32.1016C56.4349 31.5026 56.5781 31.0339 56.5781 30.6953C56.5781 29.9141 55.9401 29.1979 54.6641 28.5469C53.4141 27.8958 51.9036 27.388 50.1328 27.0234C48.362 26.6328 46.7865 26.4375 45.4062 26.4375C42.3594 26.4375 39.6641 26.9844 37.3203 28.0781C34.9766 29.1719 33.1667 30.7083 31.8906 32.6875C30.6146 34.6406 29.9766 36.8542 29.9766 39.3281C29.9766 42.1667 30.5234 44.4453 31.6172 46.1641C32.737 47.8828 34.0781 49.1979 35.6406 50.1094C37.2292 50.9948 39.3776 51.9583 42.0859 53C44.5859 53.9896 46.487 54.8229 47.7891 55.5C49.1172 56.151 50.237 57.0495 51.1484 58.1953C52.0859 59.3151 52.5547 60.7344 52.5547 62.4531C52.5547 64.0677 52.1641 65.5 51.3828 66.75C50.6276 67.974 49.5599 68.9245 48.1797 69.6016C46.7995 70.2786 45.224 70.6172 43.4531 70.6172C41.1875 70.6172 39.2604 70.3438 37.6719 69.7969C36.0833 69.25 34.4818 68.5599 32.8672 67.7266C32.1641 67.3099 31.7083 67.1016 31.5 67.1016C31.2656 67.1016 30.9531 67.3359 30.5625 67.8047C30.1719 68.2734 29.8203 68.8073 29.5078 69.4062C29.2214 70.0052 29.0781 70.487 29.0781 70.8516C29.0781 71.5026 29.7292 72.2318 31.0312 73.0391C32.3594 73.8203 34.1172 74.4974 36.3047 75.0703Z" fill="url(#paint0_linear_6_72)"/>
</g>
<defs>
<filter id="filter0_d_6_72" x="0" y="0" width="87" height="114" filterUnits="userSpaceOnUse" color-interpolation-filters="sRGB">
<feFlood flood-opacity="0" result="BackgroundImageFix"/>
<feColorMatrix in="SourceAlpha" type="matrix" values="0 0 0 0 0 0 0 0 0 0 0 0 0 0 0 0 0 0 127 0" result="hardAlpha"/>
<feOffset dy="4"/>
<feGaussianBlur stdDeviation="2"/>
<feComposite in2="hardAlpha" operator="out"/>
<feColorMatrix type="matrix" values="0 0 0 0 0 0 0 0 0 0 0 0 0 0 0 0 0 0 0.25 0"/>
<feBlend mode="normal" in2="BackgroundImageFix" result="effect1_dropShadow_6_72"/>
<feBlend mode="normal" in="SourceGraphic" in2="effect1_dropShadow_6_72" result="shape"/>
</filter>
<linearGradient id="paint0_linear_6_72" x1="43.5" y1="0" x2="43.5" y2="106" gradientUnits="userSpaceOnUse">
<stop stop-color="#FFCB00"/>
<stop offset="1" stop-color="#997A00"/>
</linearGradient>
</defs>
</svg>
