<svg width="79" height="106" viewBox="0 0 79 106" fill="none" xmlns="http://www.w3.org/2000/svg">
<path fill-rule="evenodd" clip-rule="evenodd" d="M9.5 0C4.25329 0 0 4.25329 0 9.5V96.5C0 101.747 4.25329 106 9.5 106H69.5C74.7467 106 79 101.747 79 96.5V9.5C79 4.2533 74.7467 0 69.5 0H9.5ZM7 9.5C7 8.11929 8.11929 7 9.5 7H69.5C70.8807 7 72 8.11929 72 9.5V96.5C72 97.8807 70.8807 99 69.5 99H9.5C8.11929 99 7 97.8807 7 96.5V9.5ZM32.3047 75.0703C34.5182 75.6172 36.901 75.8906 39.4531 75.8906C42.5521 75.8906 45.2604 75.3568 47.5781 74.2891C49.9219 73.1953 51.7188 71.6328 52.9688 69.6016C54.2448 67.5703 54.8828 65.1875 54.8828 62.4531C54.8828 59.5365 54.2578 57.1406 53.0078 55.2656C51.7839 53.3906 50.2865 51.9583 48.5156 50.9688C46.7708 49.9531 44.5182 48.9115 41.7578 47.8438C41.2891 47.6615 40.9896 47.5573 40.8594 47.5312C38.8542 46.776 37.2917 46.112 36.1719 45.5391C35.0521 44.9661 34.1276 44.1979 33.3984 43.2344C32.6693 42.2708 32.3047 41.0469 32.3047 39.5625C32.3047 37.0885 33.125 35.1615 34.7656 33.7812C36.4323 32.401 38.6068 31.7109 41.2891 31.7109C42.9297 31.7109 44.3229 31.9062 45.4688 32.2969C46.6146 32.6615 47.7734 33.1562 48.9453 33.7812C49.6484 34.1719 50.1172 34.3672 50.3516 34.3672C50.5599 34.3672 50.8464 34.1328 51.2109 33.6641C51.5755 33.1953 51.888 32.6745 52.1484 32.1016C52.4349 31.5026 52.5781 31.0339 52.5781 30.6953C52.5781 29.9141 51.9401 29.1979 50.6641 28.5469C49.4141 27.8958 47.9036 27.388 46.1328 27.0234C44.362 26.6328 42.7865 26.4375 41.4062 26.4375C38.3594 26.4375 35.6641 26.9844 33.3203 28.0781C30.9766 29.1719 29.1667 30.7083 27.8906 32.6875C26.6146 34.6406 25.9766 36.8542 25.9766 39.3281C25.9766 42.1667 26.5234 44.4453 27.6172 46.1641C28.737 47.8828 30.0781 49.1979 31.6406 50.1094C33.2292 50.9948 35.3776 51.9583 38.0859 53C40.5859 53.9896 42.487 54.8229 43.7891 55.5C45.1172 56.151 46.237 57.0495 47.1484 58.1953C48.0859 59.3151 48.5547 60.7344 48.5547 62.4531C48.5547 64.0677 48.1641 65.5 47.3828 66.75C46.6276 67.974 45.5599 68.9245 44.1797 69.6016C42.7995 70.2786 41.224 70.6172 39.4531 70.6172C37.1875 70.6172 35.2604 70.3438 33.6719 69.7969C32.0833 69.25 30.4818 68.5599 28.8672 67.7266C28.1641 67.3099 27.7083 67.1016 27.5 67.1016C27.2656 67.1016 26.9531 67.3359 26.5625 67.8047C26.1719 68.2734 25.8203 68.8073 25.5078 69.4062C25.2214 70.0052 25.0781 70.487 25.0781 70.8516C25.0781 71.5026 25.7292 72.2318 27.0312 73.0391C28.3594 73.8203 30.1172 74.4974 32.3047 75.0703Z" fill="#FFCB00"/>
</svg>
