<svg width="79" height="106" viewBox="0 0 79 106" fill="none" xmlns="http://www.w3.org/2000/svg">
<path fill-rule="evenodd" clip-rule="evenodd" d="M9.5 0C4.25329 0 0 4.25329 0 9.5V96.5C0 101.747 4.25329 106 9.5 106H69.5C74.7467 106 79 101.747 79 96.5V9.5C79 4.2533 74.7467 0 69.5 0H9.5ZM7 9.5C7 8.11929 8.11929 7 9.5 7H69.5C70.8807 7 72 8.11929 72 9.5V96.5C72 97.8807 70.8807 99 69.5 99H9.5C8.11929 99 7 97.8807 7 96.5V9.5ZM20.8379 69.3418C21.1367 69.5 21.6113 69.5791 22.2617 69.5791H22.6309C23.8965 69.5791 24.5293 69.2363 24.5293 68.5508V40.2588H33.3623C33.6963 40.2588 33.9336 40.1445 34.0742 39.916C34.2148 39.6875 34.2852 39.3359 34.2852 38.8613V38.0967C34.2852 37.6045 34.2148 37.2529 34.0742 37.042C33.9336 36.8135 33.6963 36.6992 33.3623 36.6992H11.3721C11.0381 36.6992 10.8008 36.8135 10.6602 37.042C10.5195 37.2529 10.4492 37.6045 10.4492 38.0967V38.8613C10.4492 39.3359 10.5195 39.6875 10.6602 39.916C10.8008 40.1445 11.0381 40.2588 11.3721 40.2588H20.3896V68.5508C20.3896 68.9023 20.5391 69.166 20.8379 69.3418ZM39.7695 68.5508C39.7695 69.2363 40.4023 69.5791 41.668 69.5791H42.0371C43.2852 69.5791 43.9092 69.2363 43.9092 68.5508V54.4443H60.8896V68.5508C60.8896 68.9023 61.0391 69.166 61.3379 69.3418C61.6367 69.5 62.1113 69.5791 62.7617 69.5791H63.1309C63.7812 69.5791 64.2559 69.5 64.5547 69.3418C64.8535 69.166 65.0029 68.9023 65.0029 68.5508V37.6221C65.0029 36.9189 64.3789 36.5674 63.1309 36.5674H62.7617C61.5137 36.5674 60.8896 36.9189 60.8896 37.6221V50.8848H43.9092V37.6221C43.9092 36.9189 43.2852 36.5674 42.0371 36.5674H41.668C40.4023 36.5674 39.7695 36.9189 39.7695 37.6221V68.5508Z" fill="#FFCB00"/>
</svg>
