<svg width="87" height="114" viewBox="0 0 87 114" fill="none" xmlns="http://www.w3.org/2000/svg">
<g filter="url(#filter0_d_6_99)">
<path fill-rule="evenodd" clip-rule="evenodd" d="M13.5 0C8.25329 0 4 4.25329 4 9.5V96.5C4 101.747 8.25329 106 13.5 106H73.5C78.7467 106 83 101.747 83 96.5V9.5C83 4.2533 78.7467 0 73.5 0H13.5ZM11 9.5C11 8.11929 12.1193 7 13.5 7H73.5C74.8807 7 76 8.11929 76 9.5V96.5C76 97.8807 74.8807 99 73.5 99H13.5C12.1193 99 11 97.8807 11 96.5V9.5ZM24.8379 69.3418C25.1367 69.5 25.6113 69.5791 26.2617 69.5791H26.6309C27.8965 69.5791 28.5293 69.2363 28.5293 68.5508V40.2588H37.3623C37.6963 40.2588 37.9336 40.1445 38.0742 39.916C38.2148 39.6875 38.2852 39.3359 38.2852 38.8613V38.0967C38.2852 37.6045 38.2148 37.2529 38.0742 37.042C37.9336 36.8135 37.6963 36.6992 37.3623 36.6992H15.3721C15.0381 36.6992 14.8008 36.8135 14.6602 37.042C14.5195 37.2529 14.4492 37.6045 14.4492 38.0967V38.8613C14.4492 39.3359 14.5195 39.6875 14.6602 39.916C14.8008 40.1445 15.0381 40.2588 15.3721 40.2588H24.3896V68.5508C24.3896 68.9023 24.5391 69.166 24.8379 69.3418ZM43.7695 68.5508C43.7695 69.2363 44.4023 69.5791 45.668 69.5791H46.0371C47.2852 69.5791 47.9092 69.2363 47.9092 68.5508V54.4443H64.8896V68.5508C64.8896 68.9023 65.0391 69.166 65.3379 69.3418C65.6367 69.5 66.1113 69.5791 66.7617 69.5791H67.1309C67.7812 69.5791 68.2559 69.5 68.5547 69.3418C68.8535 69.166 69.0029 68.9023 69.0029 68.5508V37.6221C69.0029 36.9189 68.3789 36.5674 67.1309 36.5674H66.7617C65.5137 36.5674 64.8896 36.9189 64.8896 37.6221V50.8848H47.9092V37.6221C47.9092 36.9189 47.2852 36.5674 46.0371 36.5674H45.668C44.4023 36.5674 43.7695 36.9189 43.7695 37.6221V68.5508Z" fill="url(#paint0_linear_6_99)"/>
</g>
<defs>
<filter id="filter0_d_6_99" x="0" y="0" width="87" height="114" filterUnits="userSpaceOnUse" color-interpolation-filters="sRGB">
<feFlood flood-opacity="0" result="BackgroundImageFix"/>
<feColorMatrix in="SourceAlpha" type="matrix" values="0 0 0 0 0 0 0 0 0 0 0 0 0 0 0 0 0 0 127 0" result="hardAlpha"/>
<feOffset dy="4"/>
<feGaussianBlur stdDeviation="2"/>
<feComposite in2="hardAlpha" operator="out"/>
<feColorMatrix type="matrix" values="0 0 0 0 0 0 0 0 0 0 0 0 0 0 0 0 0 0 0.25 0"/>
<feBlend mode="normal" in2="BackgroundImageFix" result="effect1_dropShadow_6_99"/>
<feBlend mode="normal" in="SourceGraphic" in2="effect1_dropShadow_6_99" result="shape"/>
</filter>
<linearGradient id="paint0_linear_6_99" x1="43.5" y1="0" x2="43.5" y2="106" gradientUnits="userSpaceOnUse">
<stop stop-color="#FFCB00"/>
<stop offset="1" stop-color="#997A00"/>
</linearGradient>
</defs>
</svg>
