<svg width="87" height="114" viewBox="0 0 87 114" fill="none" xmlns="http://www.w3.org/2000/svg">
<g filter="url(#filter0_d_6_96)">
<path fill-rule="evenodd" clip-rule="evenodd" d="M13.5 0C8.25329 0 4 4.25329 4 9.5V96.5C4 101.747 8.25329 106 13.5 106H73.5C78.7467 106 83 101.747 83 96.5V9.5C83 4.2533 78.7467 0 73.5 0H13.5ZM11 9.5C11 8.11929 12.1193 7 13.5 7H73.5C74.8807 7 76 8.11929 76 9.5V96.5C76 97.8807 74.8807 99 73.5 99H13.5C12.1193 99 11 97.8807 11 96.5V9.5ZM32.9141 79.0156C35.7526 80.2656 39.1901 80.8906 43.2266 80.8906C47.263 80.8906 50.7005 80.2656 53.5391 79.0156C56.3776 77.7396 58.526 75.9036 59.9844 73.5078C61.4427 71.112 62.1719 68.2474 62.1719 64.9141V33.2734C62.1719 32.2318 61.2604 31.7109 59.4375 31.7109H58.8516C57.0026 31.7109 56.0781 32.2318 56.0781 33.2734V65.1484C56.0781 67.1536 55.5182 68.9505 54.3984 70.5391C53.3047 72.1276 51.7812 73.3776 49.8281 74.2891C47.875 75.1745 45.6745 75.6172 43.2266 75.6172C40.8047 75.6172 38.6172 75.1745 36.6641 74.2891C34.7109 73.4036 33.1745 72.1667 32.0547 70.5781C30.9349 68.9896 30.375 67.1797 30.375 65.1484V33.2734C30.375 32.2318 29.4505 31.7109 27.6016 31.7109H27.0547C25.2057 31.7109 24.2812 32.2318 24.2812 33.2734V64.9141C24.2812 68.2474 25.0104 71.112 26.4688 73.5078C27.9271 75.9036 30.0755 77.7396 32.9141 79.0156Z" fill="url(#paint0_linear_6_96)"/>
</g>
<defs>
<filter id="filter0_d_6_96" x="0" y="0" width="87" height="114" filterUnits="userSpaceOnUse" color-interpolation-filters="sRGB">
<feFlood flood-opacity="0" result="BackgroundImageFix"/>
<feColorMatrix in="SourceAlpha" type="matrix" values="0 0 0 0 0 0 0 0 0 0 0 0 0 0 0 0 0 0 127 0" result="hardAlpha"/>
<feOffset dy="4"/>
<feGaussianBlur stdDeviation="2"/>
<feComposite in2="hardAlpha" operator="out"/>
<feColorMatrix type="matrix" values="0 0 0 0 0 0 0 0 0 0 0 0 0 0 0 0 0 0 0.25 0"/>
<feBlend mode="normal" in2="BackgroundImageFix" result="effect1_dropShadow_6_96"/>
<feBlend mode="normal" in="SourceGraphic" in2="effect1_dropShadow_6_96" result="shape"/>
</filter>
<linearGradient id="paint0_linear_6_96" x1="43.5" y1="0" x2="43.5" y2="106" gradientUnits="userSpaceOnUse">
<stop stop-color="#FFCB00"/>
<stop offset="1" stop-color="#997A00"/>
</linearGradient>
</defs>
</svg>
