<svg width="79" height="106" viewBox="0 0 79 106" fill="none" xmlns="http://www.w3.org/2000/svg">
<path fill-rule="evenodd" clip-rule="evenodd" d="M9.5 0C4.25329 0 0 4.25329 0 9.5V96.5C0 101.747 4.25329 106 9.5 106H69.5C74.7467 106 79 101.747 79 96.5V9.5C79 4.2533 74.7467 0 69.5 0H9.5ZM7 9.5C7 8.11929 8.11929 7 9.5 7H69.5C70.8807 7 72 8.11929 72 9.5V96.5C72 97.8807 70.8807 99 69.5 99H9.5C8.11929 99 7 97.8807 7 96.5V9.5ZM28.9141 79.0156C31.7526 80.2656 35.1901 80.8906 39.2266 80.8906C43.263 80.8906 46.7005 80.2656 49.5391 79.0156C52.3776 77.7396 54.526 75.9036 55.9844 73.5078C57.4427 71.112 58.1719 68.2474 58.1719 64.9141V33.2734C58.1719 32.2318 57.2604 31.7109 55.4375 31.7109H54.8516C53.0026 31.7109 52.0781 32.2318 52.0781 33.2734V65.1484C52.0781 67.1536 51.5182 68.9505 50.3984 70.5391C49.3047 72.1276 47.7812 73.3776 45.8281 74.2891C43.875 75.1745 41.6745 75.6172 39.2266 75.6172C36.8047 75.6172 34.6172 75.1745 32.6641 74.2891C30.7109 73.4036 29.1745 72.1667 28.0547 70.5781C26.9349 68.9896 26.375 67.1797 26.375 65.1484V33.2734C26.375 32.2318 25.4505 31.7109 23.6016 31.7109H23.0547C21.2057 31.7109 20.2812 32.2318 20.2812 33.2734V64.9141C20.2812 68.2474 21.0104 71.112 22.4688 73.5078C23.9271 75.9036 26.0755 77.7396 28.9141 79.0156Z" fill="#FFCB00"/>
</svg>
