<svg width="87" height="114" viewBox="0 0 87 114" fill="none" xmlns="http://www.w3.org/2000/svg">
<g filter="url(#filter0_d_6_90)">
<path fill-rule="evenodd" clip-rule="evenodd" d="M13.5 0C8.25329 0 4 4.25329 4 9.5V96.5C4 101.747 8.25329 106 13.5 106H73.5C78.7467 106 83 101.747 83 96.5V9.5C83 4.2533 78.7467 0 73.5 0H13.5ZM11 9.5C11 8.11929 12.1193 7 13.5 7H73.5C74.8807 7 76 8.11929 76 9.5V96.5C76 97.8807 74.8807 99 73.5 99H13.5C12.1193 99 11 97.8807 11 96.5V9.5ZM27.9844 73.6455C28.1211 74.2835 28.9414 74.6025 30.4453 74.6025H32.9404C34.3988 74.6025 35.1963 74.2835 35.333 73.6455L41.9639 48.8994L43.2627 41.0039L44.4932 48.8994L51.1582 73.6455C51.2949 74.2835 52.1038 74.6025 53.585 74.6025H56.0459C57.5042 74.6025 58.3245 74.2835 58.5068 73.6455L69 33.7236C69.1139 33.3135 69.1709 33.0286 69.1709 32.8691C69.1709 32.1628 68.305 31.8096 66.5732 31.8096H66.1973C64.7617 31.8096 63.9642 32.14 63.8047 32.8008L56.4561 62.6055C55.9548 64.4967 55.4648 66.4222 54.9863 68.3818C54.9408 67.9945 54.804 67.1855 54.5762 65.9551C54.3711 64.7246 54.1546 63.665 53.9268 62.7764L46.4072 32.8691C46.2477 32.1628 45.4502 31.8096 44.0146 31.8096H43.0576C41.6449 31.8096 40.8587 32.1628 40.6992 32.8691L33.3506 62.5371C32.8721 64.3372 32.3822 66.2855 31.8809 68.3818C31.8581 68.3363 31.7897 67.9603 31.6758 67.2539C31.2201 64.8158 30.9238 63.3005 30.7871 62.708L23.0625 32.8008C22.9714 32.459 22.7093 32.2083 22.2764 32.0488C21.8434 31.8893 21.2965 31.8096 20.6357 31.8096H20.0547C19.166 31.8096 18.5052 31.9121 18.0723 32.1172C17.6393 32.2995 17.4229 32.5501 17.4229 32.8691C17.4229 32.9603 17.4456 33.097 17.4912 33.2793C17.5368 33.4616 17.571 33.6097 17.5938 33.7236L27.9844 73.6455Z" fill="url(#paint0_linear_6_90)"/>
</g>
<defs>
<filter id="filter0_d_6_90" x="0" y="0" width="87" height="114" filterUnits="userSpaceOnUse" color-interpolation-filters="sRGB">
<feFlood flood-opacity="0" result="BackgroundImageFix"/>
<feColorMatrix in="SourceAlpha" type="matrix" values="0 0 0 0 0 0 0 0 0 0 0 0 0 0 0 0 0 0 127 0" result="hardAlpha"/>
<feOffset dy="4"/>
<feGaussianBlur stdDeviation="2"/>
<feComposite in2="hardAlpha" operator="out"/>
<feColorMatrix type="matrix" values="0 0 0 0 0 0 0 0 0 0 0 0 0 0 0 0 0 0 0.25 0"/>
<feBlend mode="normal" in2="BackgroundImageFix" result="effect1_dropShadow_6_90"/>
<feBlend mode="normal" in="SourceGraphic" in2="effect1_dropShadow_6_90" result="shape"/>
</filter>
<linearGradient id="paint0_linear_6_90" x1="43.5" y1="0" x2="43.5" y2="106" gradientUnits="userSpaceOnUse">
<stop stop-color="#FFCB00"/>
<stop offset="1" stop-color="#997A00"/>
</linearGradient>
</defs>
</svg>
