<svg width="87" height="114" viewBox="0 0 87 114" fill="none" xmlns="http://www.w3.org/2000/svg">
<g filter="url(#filter0_d_6_69)">
<path fill-rule="evenodd" clip-rule="evenodd" d="M13.5 0C8.25329 0 4 4.25329 4 9.5V96.5C4 101.747 8.25329 106 13.5 106H73.5C78.7467 106 83 101.747 83 96.5V9.5C83 4.2533 78.7467 0 73.5 0H13.5ZM11 9.5C11 8.11929 12.1193 7 13.5 7H73.5C74.8807 7 76 8.11929 76 9.5V96.5C76 97.8807 74.8807 99 73.5 99H13.5C12.1193 99 11 97.8807 11 96.5V9.5ZM26.7031 74.2109C27.0938 75.0703 27.4714 75.5 27.8359 75.5H61.625C62.1198 75.5 62.4714 75.3177 62.6797 74.9531C62.9141 74.5625 63.0312 73.9505 63.0312 73.1172V72.5703C63.0312 71.737 62.9141 71.138 62.6797 70.7734C62.4714 70.4089 62.1198 70.2266 61.625 70.2266H34.4766L62.9531 31.3984C63.0833 31.1901 63.1484 30.9167 63.1484 30.5781C63.1484 30.1094 63.0573 29.5885 62.875 29.0156C62.6927 28.4427 62.4714 27.9479 62.2109 27.5312C61.9766 27.1146 61.7812 26.9062 61.625 26.9062H29.8281C29.3333 26.9062 28.9688 27.0885 28.7344 27.4531C28.526 27.8177 28.4219 28.4167 28.4219 29.25V29.7969C28.4219 30.6302 28.526 31.2422 28.7344 31.6328C28.9688 31.9974 29.3333 32.1797 29.8281 32.1797H54.8281L26.3516 70.9688C26.2214 71.1771 26.1562 71.4635 26.1562 71.8281C26.1562 72.5312 26.3385 73.3255 26.7031 74.2109Z" fill="url(#paint0_linear_6_69)"/>
</g>
<defs>
<filter id="filter0_d_6_69" x="0" y="0" width="87" height="114" filterUnits="userSpaceOnUse" color-interpolation-filters="sRGB">
<feFlood flood-opacity="0" result="BackgroundImageFix"/>
<feColorMatrix in="SourceAlpha" type="matrix" values="0 0 0 0 0 0 0 0 0 0 0 0 0 0 0 0 0 0 127 0" result="hardAlpha"/>
<feOffset dy="4"/>
<feGaussianBlur stdDeviation="2"/>
<feComposite in2="hardAlpha" operator="out"/>
<feColorMatrix type="matrix" values="0 0 0 0 0 0 0 0 0 0 0 0 0 0 0 0 0 0 0.25 0"/>
<feBlend mode="normal" in2="BackgroundImageFix" result="effect1_dropShadow_6_69"/>
<feBlend mode="normal" in="SourceGraphic" in2="effect1_dropShadow_6_69" result="shape"/>
</filter>
<linearGradient id="paint0_linear_6_69" x1="43.5" y1="0" x2="43.5" y2="106" gradientUnits="userSpaceOnUse">
<stop stop-color="#FFCB00"/>
<stop offset="1" stop-color="#997A00"/>
</linearGradient>
</defs>
</svg>
