<svg width="375" height="72" viewBox="0 0 375 72" fill="none" xmlns="http://www.w3.org/2000/svg">
<g filter="url(#filter0_d_11_9)">
<path fill-rule="evenodd" clip-rule="evenodd" d="M19 0V24.8569L9.51384 15.0647L4.48616 19.9353L19 34.9173V62.5H26V41.9497L34.5 50.4497V62.5H41.5V14.2095L57.4974 25.3704L61.5026 19.6296L40.0026 4.62956L34.5 0.790508V7.5V40.5503L26 32.0503V0H19ZM140.451 63.4321C138.588 63.4321 136.927 62.8944 135.467 61.8188C134.027 60.7241 132.894 59.1396 132.068 57.0654C131.261 54.972 130.858 52.4753 130.858 49.5752C130.858 46.7904 131.28 44.3608 132.125 42.2866C132.971 40.2124 134.2 38.6183 135.813 37.5044C137.445 36.3713 139.395 35.8047 141.661 35.8047C143.697 35.8047 145.435 36.3328 146.875 37.3892V26.0386C146.875 24.9246 147.903 24.3677 149.958 24.3677H151.398C152.455 24.3677 153.223 24.5117 153.703 24.7998C154.202 25.0687 154.452 25.4816 154.452 26.0386V53.9541C154.452 55.5482 154.491 56.7869 154.567 57.6704C154.663 58.5539 154.788 59.4277 154.942 60.292C155.038 60.8105 155.086 61.1755 155.086 61.3867C155.086 61.7708 154.721 62.0877 153.991 62.3374C153.281 62.5871 152.464 62.7695 151.542 62.8848C150.64 63 149.91 63.0576 149.353 63.0576C148.758 63.0576 148.335 62.8271 148.085 62.3662C147.855 61.9053 147.644 61.2331 147.452 60.3496L147.279 59.5718C146.664 60.7049 145.752 61.6364 144.542 62.3662C143.332 63.0768 141.968 63.4321 140.451 63.4321ZM142.698 57.2095C144.312 57.2095 145.704 56.2012 146.875 54.1846V42.7476C145.666 42.0946 144.475 41.7681 143.303 41.7681C140.115 41.7681 138.521 44.3704 138.521 49.5752C138.521 54.6647 139.913 57.2095 142.698 57.2095ZM50.626 63.0864C48.571 63.0864 47.5435 62.5487 47.5435 61.4731V28.689C47.5435 28.132 47.7931 27.7191 48.2925 27.4502C48.7918 27.1621 49.5697 27.0181 50.626 27.0181H52.8154C53.6413 27.0181 54.3231 27.1141 54.8608 27.3062C55.3986 27.4982 55.8403 27.8727 56.186 28.4297L68.2856 47.0688L69.6685 49.1431V28.689C69.6685 28.132 69.9181 27.7191 70.4175 27.4502C70.9168 27.1621 71.6947 27.0181 72.751 27.0181H74.2202C75.2765 27.0181 76.0448 27.1621 76.5249 27.4502C77.0243 27.7191 77.2739 28.132 77.2739 28.689V61.4731C77.2739 62.5487 76.256 63.0864 74.2202 63.0864H72.2612C71.4162 63.0864 70.7344 63 70.2158 62.8271C69.6973 62.6351 69.2651 62.2702 68.9194 61.7324L56.2437 42.3442L55.1489 40.731V61.4731C55.1489 62.5487 54.131 63.0864 52.0952 63.0864H50.626ZM95.4233 63.4321C91.3709 63.4321 88.2788 62.2414 86.147 59.8599C84.0343 57.4784 82.978 54.0501 82.978 49.5752C82.978 45.1195 84.0343 41.7104 86.147 39.3481C88.2788 36.9858 91.3709 35.8047 95.4233 35.8047C99.4757 35.8047 102.549 36.9858 104.642 39.3481C106.755 41.6912 107.811 45.1003 107.811 49.5752C107.811 54.0501 106.755 57.4784 104.642 59.8599C102.549 62.2414 99.4757 63.4321 95.4233 63.4321ZM95.4233 57.4111C97.0366 57.4111 98.2178 56.7581 98.9668 55.4521C99.735 54.1462 100.119 52.1872 100.119 49.5752C100.119 46.9824 99.735 45.033 98.9668 43.7271C98.2178 42.4211 97.0366 41.7681 95.4233 41.7681C92.2352 41.7681 90.6411 44.3704 90.6411 49.5752C90.6411 52.168 91.0252 54.127 91.7935 55.4521C92.5809 56.7581 93.7909 57.4111 95.4233 57.4111ZM113.169 61.4731C113.169 62.5487 114.187 63.0864 116.223 63.0864H117.635C119.709 63.0864 120.746 62.5487 120.746 61.4731V45.0234C121.111 44.3704 121.639 43.7847 122.331 43.2661C123.041 42.7284 123.867 42.4595 124.808 42.4595C125.211 42.4595 125.701 42.5363 126.277 42.6899C126.7 42.8052 127.017 42.8628 127.228 42.8628C127.535 42.8628 127.814 42.5939 128.063 42.0562C128.313 41.5184 128.505 40.9038 128.64 40.2124C128.774 39.5018 128.841 38.9544 128.841 38.5703C128.841 37.8597 128.63 37.2259 128.208 36.6689C127.785 36.0928 127.017 35.8047 125.903 35.8047C124.558 35.8047 123.454 36.16 122.59 36.8706C121.745 37.562 120.996 38.5031 120.343 39.6938L120.17 38.9448C119.978 38.0998 119.757 37.4564 119.507 37.0146C119.277 36.5729 118.864 36.3521 118.269 36.3521C117.712 36.3521 116.972 36.4097 116.05 36.5249C115.148 36.6401 114.331 36.8226 113.602 37.0723C112.891 37.3027 112.536 37.61 112.536 37.9941C112.536 38.2054 112.584 38.5703 112.68 39.0889C113.006 40.7214 113.169 42.7668 113.169 45.2251V61.4731ZM161.424 31.397C161.923 31.6659 162.711 31.8003 163.786 31.8003H165.198C166.273 31.8003 167.051 31.6659 167.531 31.397C168.031 31.1281 168.28 30.7152 168.28 30.1582V26.0386C168.28 25.4816 168.031 25.0687 167.531 24.7998C167.032 24.5117 166.254 24.3677 165.198 24.3677H163.786C162.73 24.3677 161.952 24.5117 161.453 24.7998C160.953 25.0687 160.704 25.4816 160.704 26.0386V30.1582C160.704 30.7152 160.944 31.1281 161.424 31.397ZM160.704 61.4731C160.704 62.5487 161.731 63.0864 163.786 63.0864H165.198C167.253 63.0864 168.28 62.5487 168.28 61.4731V37.7349C168.28 37.1971 168.031 36.7938 167.531 36.5249C167.032 36.256 166.254 36.1216 165.198 36.1216H163.786C162.73 36.1216 161.952 36.256 161.453 36.5249C160.953 36.7938 160.704 37.1971 160.704 37.7349V61.4731ZM186.314 63.4321C181.955 63.4321 178.719 62.3086 176.606 60.0615C174.493 57.7952 173.437 54.367 173.437 49.7769C173.437 45.1483 174.503 41.6624 176.635 39.3193C178.767 36.9762 182.089 35.8047 186.603 35.8047C187.889 35.8047 189.186 35.9487 190.492 36.2368C191.817 36.5057 192.912 36.909 193.776 37.4468C194.659 37.9653 195.101 38.5991 195.101 39.3481C195.101 39.6554 194.928 40.1356 194.583 40.7886C194.256 41.4416 193.872 42.0273 193.43 42.5459C193.008 43.0452 192.652 43.2949 192.364 43.2949C192.23 43.2949 191.932 43.1605 191.471 42.8916C190.741 42.5459 190.05 42.277 189.397 42.085C188.744 41.8737 187.947 41.7681 187.006 41.7681C184.989 41.7681 183.52 42.4115 182.598 43.6982C181.676 44.9658 181.215 46.9248 181.215 49.5752C181.215 52.2448 181.647 54.223 182.512 55.5098C183.395 56.7773 184.797 57.4111 186.718 57.4111C187.774 57.4111 188.696 57.3055 189.483 57.0942C190.271 56.8638 191.02 56.5757 191.73 56.23C191.865 56.1724 192.028 56.1051 192.22 56.0283C192.412 55.9515 192.556 55.9131 192.652 55.9131C192.998 55.9131 193.373 56.1628 193.776 56.6621C194.198 57.1423 194.554 57.6992 194.842 58.333C195.149 58.9668 195.303 59.4565 195.303 59.8022C195.303 60.6857 194.727 61.3963 193.574 61.9341C192.422 62.4718 191.135 62.856 189.714 63.0864C188.293 63.3169 187.16 63.4321 186.314 63.4321ZM200.143 62.5103C200.469 62.8368 200.988 63 201.698 63H218.955C219.492 63 219.876 62.7983 220.107 62.395C220.357 61.9917 220.481 61.3387 220.481 60.436V58.8228C220.481 57.9393 220.357 57.2959 220.107 56.8926C219.876 56.4893 219.492 56.2876 218.955 56.2876H207.546V28.689C207.546 28.132 207.297 27.7191 206.797 27.4502C206.298 27.1621 205.52 27.0181 204.464 27.0181H202.735C201.679 27.0181 200.901 27.1621 200.402 27.4502C199.903 27.7191 199.653 28.132 199.653 28.689V60.9546C199.653 61.6652 199.816 62.1838 200.143 62.5103ZM236.413 63.4321C231.918 63.4321 228.567 62.2318 226.358 59.8311C224.15 57.4111 223.045 54.0597 223.045 49.7769C223.045 44.9562 224.15 41.4224 226.358 39.1753C228.567 36.9282 231.611 35.8047 235.491 35.8047C238.064 35.8047 240.167 36.3905 241.8 37.562C243.451 38.7336 244.652 40.3084 245.401 42.2866C246.169 44.2648 246.553 46.5023 246.553 48.999C246.553 49.2871 246.38 49.6712 246.035 50.1514C245.708 50.6315 245.334 51.0636 244.911 51.4478C244.489 51.8319 244.162 52.0239 243.932 52.0239H230.881C231.054 53.9829 231.63 55.3753 232.61 56.2012C233.609 57.0078 234.991 57.4111 236.758 57.4111C237.719 57.4111 238.583 57.3055 239.351 57.0942C240.139 56.8638 240.974 56.5661 241.857 56.2012C242.395 55.9515 242.76 55.8267 242.952 55.8267C243.298 55.8267 243.672 56.0763 244.076 56.5757C244.498 57.0558 244.854 57.6128 245.142 58.2466C245.449 58.8804 245.603 59.3701 245.603 59.7158C245.603 60.5033 245.065 61.1755 243.989 61.7324C242.933 62.2894 241.675 62.7119 240.215 63C238.775 63.2881 237.507 63.4321 236.413 63.4321ZM239.178 46.9824C239.178 45.4076 238.871 44.1496 238.256 43.2085C237.642 42.2482 236.72 41.7681 235.491 41.7681C232.956 41.7681 231.419 43.5062 230.881 46.9824H239.178ZM252.517 61.3867C253.746 62.7503 255.666 63.4321 258.278 63.4321C259.7 63.4321 260.948 63.1825 262.023 62.6831C263.099 62.1646 263.944 61.598 264.559 60.9834C265.192 60.3688 265.605 59.8791 265.797 59.5142C265.836 59.6294 265.865 59.7446 265.884 59.8599L265.941 60.2056C266.095 61.089 266.297 61.79 266.546 62.3086C266.815 62.8079 267.247 63.0576 267.843 63.0576C268.4 63.0576 269.139 63 270.061 62.8848C270.983 62.7695 271.799 62.5871 272.51 62.3374C273.24 62.0877 273.604 61.7708 273.604 61.3867C273.604 61.1755 273.556 60.8105 273.46 60.292C273.307 59.4277 273.182 58.5539 273.086 57.6704C273.009 56.7869 272.971 55.5482 272.971 53.9541V44.3608C272.971 41.7104 272.097 39.6266 270.349 38.1094C268.601 36.5729 265.807 35.8047 261.966 35.8047C260.141 35.8047 258.48 35.9775 256.982 36.3232C255.484 36.6497 254.303 37.0915 253.438 37.6484C252.593 38.1862 252.171 38.7528 252.171 39.3481C252.171 39.6938 252.325 40.2028 252.632 40.875C252.939 41.5472 253.294 42.1426 253.698 42.6611C254.12 43.1797 254.504 43.439 254.85 43.439C254.965 43.439 255.273 43.3237 255.772 43.0933C256.732 42.6899 257.625 42.373 258.451 42.1426C259.277 41.8929 260.266 41.7681 261.418 41.7681C262.801 41.7681 263.81 42.0081 264.443 42.4883C265.077 42.9684 265.394 43.7078 265.394 44.7065V46.4062C261.361 46.4062 258.259 46.8768 256.089 47.8179C253.919 48.759 252.478 49.9209 251.768 51.3037C251.057 52.6673 250.702 54.2038 250.702 55.9131C250.702 58.1794 251.307 60.0039 252.517 61.3867ZM263.493 56.5181C262.648 57.1134 261.745 57.4111 260.785 57.4111C259.978 57.4111 259.344 57.1999 258.883 56.7773C258.442 56.3548 258.221 55.8075 258.221 55.1353C258.221 52.6193 260.612 51.3613 265.394 51.3613V54.1846C264.972 55.1257 264.338 55.9035 263.493 56.5181ZM282.737 63.0864C280.701 63.0864 279.683 62.5487 279.683 61.4731V45.2251C279.683 42.7668 279.52 40.7214 279.193 39.0889C279.097 38.5703 279.049 38.2054 279.049 37.9941C279.049 37.61 279.405 37.3027 280.115 37.0723C280.845 36.8226 281.661 36.6401 282.564 36.5249C283.486 36.4097 284.225 36.3521 284.782 36.3521C285.378 36.3521 285.791 36.5729 286.021 37.0146C286.271 37.4564 286.492 38.0998 286.684 38.9448L286.856 39.6938C287.509 38.5031 288.258 37.562 289.104 36.8706C289.968 36.16 291.072 35.8047 292.417 35.8047C293.53 35.8047 294.299 36.0928 294.721 36.6689C295.144 37.2259 295.355 37.8597 295.355 38.5703C295.355 38.9544 295.288 39.5018 295.153 40.2124C295.019 40.9038 294.827 41.5184 294.577 42.0562C294.327 42.5939 294.049 42.8628 293.742 42.8628C293.53 42.8628 293.214 42.8052 292.791 42.6899C292.215 42.5363 291.725 42.4595 291.322 42.4595C290.381 42.4595 289.555 42.7284 288.844 43.2661C288.153 43.7847 287.625 44.3704 287.26 45.0234V61.4731C287.26 62.5487 286.223 63.0864 284.148 63.0864H282.737ZM298.409 61.4731C298.409 62.5487 299.427 63.0864 301.462 63.0864H302.874C304.948 63.0864 305.985 62.5487 305.985 61.4731V45.0234C306.35 44.2744 306.888 43.5926 307.599 42.978C308.309 42.3634 309.125 42.0562 310.047 42.0562C311.142 42.0562 311.93 42.325 312.41 42.8628C312.909 43.4006 313.159 44.188 313.159 45.2251V61.4731C313.159 62.5487 314.177 63.0864 316.212 63.0864H317.624C319.698 63.0864 320.735 62.5487 320.735 61.4731V44.0728C320.735 41.2495 320.121 39.1657 318.892 37.8213C317.662 36.4769 315.761 35.8047 313.188 35.8047C311.632 35.8047 310.172 36.1888 308.809 36.957C307.464 37.7061 306.389 38.6183 305.582 39.6938L305.409 38.9448C305.217 38.0998 304.996 37.4564 304.747 37.0146C304.516 36.5729 304.103 36.3521 303.508 36.3521C302.951 36.3521 302.211 36.4097 301.29 36.5249C300.387 36.6401 299.571 36.8226 298.841 37.0723C298.13 37.3027 297.775 37.61 297.775 37.9941C297.775 38.2054 297.823 38.5703 297.919 39.0889C298.245 40.7214 298.409 42.7668 298.409 45.2251V61.4731ZM339.259 63.4321C334.765 63.4321 331.414 62.2318 329.205 59.8311C326.996 57.4111 325.892 54.0597 325.892 49.7769C325.892 44.9562 326.996 41.4224 329.205 39.1753C331.414 36.9282 334.458 35.8047 338.337 35.8047C340.911 35.8047 343.014 36.3905 344.646 37.562C346.298 38.7336 347.499 40.3084 348.248 42.2866C349.016 44.2648 349.4 46.5023 349.4 48.999C349.4 49.2871 349.227 49.6712 348.881 50.1514C348.555 50.6315 348.18 51.0636 347.758 51.4478C347.335 51.8319 347.009 52.0239 346.778 52.0239H333.728C333.901 53.9829 334.477 55.3753 335.457 56.2012C336.455 57.0078 337.838 57.4111 339.605 57.4111C340.565 57.4111 341.43 57.3055 342.198 57.0942C342.985 56.8638 343.821 56.5661 344.704 56.2012C345.242 55.9515 345.607 55.8267 345.799 55.8267C346.145 55.8267 346.519 56.0763 346.922 56.5757C347.345 57.0558 347.7 57.6128 347.988 58.2466C348.296 58.8804 348.449 59.3701 348.449 59.7158C348.449 60.5033 347.911 61.1755 346.836 61.7324C345.78 62.2894 344.522 62.7119 343.062 63C341.622 63.2881 340.354 63.4321 339.259 63.4321ZM342.025 46.9824C342.025 45.4076 341.718 44.1496 341.103 43.2085C340.488 42.2482 339.567 41.7681 338.337 41.7681C335.802 41.7681 334.266 43.5062 333.728 46.9824H342.025ZM354.585 61.4731C354.585 62.5487 355.603 63.0864 357.639 63.0864H359.051C361.125 63.0864 362.162 62.5487 362.162 61.4731V45.0234C362.527 44.3704 363.055 43.7847 363.747 43.2661C364.457 42.7284 365.283 42.4595 366.224 42.4595C366.627 42.4595 367.117 42.5363 367.693 42.6899C368.116 42.8052 368.433 42.8628 368.644 42.8628C368.951 42.8628 369.23 42.5939 369.479 42.0562C369.729 41.5184 369.921 40.9038 370.056 40.2124C370.19 39.5018 370.257 38.9544 370.257 38.5703C370.257 37.8597 370.046 37.2259 369.624 36.6689C369.201 36.0928 368.433 35.8047 367.319 35.8047C365.974 35.8047 364.87 36.16 364.006 36.8706C363.161 37.562 362.412 38.5031 361.759 39.6938L361.586 38.9448C361.394 38.0998 361.173 37.4564 360.923 37.0146C360.693 36.5729 360.28 36.3521 359.685 36.3521C359.128 36.3521 358.388 36.4097 357.466 36.5249C356.564 36.6401 355.747 36.8226 355.018 37.0723C354.307 37.3027 353.952 37.61 353.952 37.9941C353.952 38.2054 354 38.5703 354.096 39.0889C354.422 40.7214 354.585 42.7668 354.585 45.2251V61.4731Z" fill="url(#paint0_linear_11_9)"/>
</g>
<defs>
<filter id="filter0_d_11_9" x="0.486084" y="0" width="373.771" height="71.4321" filterUnits="userSpaceOnUse" color-interpolation-filters="sRGB">
<feFlood flood-opacity="0" result="BackgroundImageFix"/>
<feColorMatrix in="SourceAlpha" type="matrix" values="0 0 0 0 0 0 0 0 0 0 0 0 0 0 0 0 0 0 127 0" result="hardAlpha"/>
<feOffset dy="4"/>
<feGaussianBlur stdDeviation="2"/>
<feComposite in2="hardAlpha" operator="out"/>
<feColorMatrix type="matrix" values="0 0 0 0 0 0 0 0 0 0 0 0 0 0 0 0 0 0 0.25 0"/>
<feBlend mode="normal" in2="BackgroundImageFix" result="effect1_dropShadow_11_9"/>
<feBlend mode="normal" in="SourceGraphic" in2="effect1_dropShadow_11_9" result="shape"/>
</filter>
<linearGradient id="paint0_linear_11_9" x1="191" y1="14" x2="192" y2="121.5" gradientUnits="userSpaceOnUse">
<stop stop-color="white"/>
<stop offset="1" stop-color="#858585"/>
</linearGradient>
</defs>
</svg>
