<svg width="87" height="114" viewBox="0 0 87 114" fill="none" xmlns="http://www.w3.org/2000/svg">
<g filter="url(#filter0_d_3_211)">
<path fill-rule="evenodd" clip-rule="evenodd" d="M13.5 0C8.25329 0 4 4.25329 4 9.5V96.5C4 101.747 8.25329 106 13.5 106H73.5C78.7467 106 83 101.747 83 96.5V9.5C83 4.2533 78.7467 0 73.5 0H13.5ZM11 9.5C11 8.11929 12.1193 7 13.5 7H73.5C74.8807 7 76 8.11929 76 9.5V96.5C76 97.8807 74.8807 99 73.5 99H13.5C12.1193 99 11 97.8807 11 96.5V9.5ZM24.0625 77.3438C24.5312 77.526 25.2865 77.6172 26.3281 77.6172H26.6797C28.2943 77.6172 29.2188 77.2526 29.4531 76.5234L33.4375 65.1172H53.8281L57.8906 76.5234C58.151 77.2526 59.0885 77.6172 60.7031 77.6172H61.2891C63.2422 77.6172 64.2188 77.2266 64.2188 76.4453C64.2188 76.1328 64.1536 75.8333 64.0234 75.5469L47.5781 29.8438C47.3177 29.0885 46.3932 28.7109 44.8047 28.7109H42.7734C41.1849 28.7109 40.2604 29.0885 40 29.8438L23.5547 75.5078C23.4245 75.9505 23.3594 76.263 23.3594 76.4453C23.3594 76.8359 23.5938 77.1354 24.0625 77.3438ZM44.6875 39.1797L51.9531 59.8438H35.3516L42.6172 39.1797C43.0078 38.2161 43.3594 36.862 43.6719 35.1172H43.8281C43.9323 35.7943 44.0495 36.4974 44.1797 37.2266C44.3099 37.9557 44.4792 38.6068 44.6875 39.1797Z" fill="url(#paint0_linear_3_211)"/>
</g>
<defs>
<filter id="filter0_d_3_211" x="0" y="0" width="87" height="114" filterUnits="userSpaceOnUse" color-interpolation-filters="sRGB">
<feFlood flood-opacity="0" result="BackgroundImageFix"/>
<feColorMatrix in="SourceAlpha" type="matrix" values="0 0 0 0 0 0 0 0 0 0 0 0 0 0 0 0 0 0 127 0" result="hardAlpha"/>
<feOffset dy="4"/>
<feGaussianBlur stdDeviation="2"/>
<feComposite in2="hardAlpha" operator="out"/>
<feColorMatrix type="matrix" values="0 0 0 0 0 0 0 0 0 0 0 0 0 0 0 0 0 0 0.25 0"/>
<feBlend mode="normal" in2="BackgroundImageFix" result="effect1_dropShadow_3_211"/>
<feBlend mode="normal" in="SourceGraphic" in2="effect1_dropShadow_3_211" result="shape"/>
</filter>
<linearGradient id="paint0_linear_3_211" x1="43.5" y1="0" x2="43.5" y2="106" gradientUnits="userSpaceOnUse">
<stop stop-color="white"/>
<stop offset="1" stop-color="#999999"/>
</linearGradient>
</defs>
</svg>
