<svg width="87" height="114" viewBox="0 0 87 114" fill="none" xmlns="http://www.w3.org/2000/svg">
<g filter="url(#filter0_d_3_225)">
<path fill-rule="evenodd" clip-rule="evenodd" d="M13.5 0C8.25329 0 4 4.25329 4 9.5V96.5C4 101.747 8.25329 106 13.5 106H73.5C78.7467 106 83 101.747 83 96.5V9.5C83 4.2533 78.7467 0 73.5 0H13.5ZM11 9.5C11 8.11929 12.1193 7 13.5 7H73.5C74.8807 7 76 8.11929 76 9.5V96.5C76 97.8807 74.8807 99 73.5 99H13.5C12.1193 99 11 97.8807 11 96.5V9.5ZM30.7266 76.9922C31.0651 77.3307 31.599 77.5 32.3281 77.5H44.2812C56.3646 77.5 62.4062 72.8385 62.4062 63.5156C62.4062 60.8073 61.6771 58.6068 60.2188 56.9141C58.7865 55.1953 57.1719 53.9062 55.375 53.0469C53.5781 52.1615 52.6797 51.8099 52.6797 51.9922V51.7188C54.0078 51.3542 55.2578 50.638 56.4297 49.5703C57.6016 48.4766 58.5391 47.1875 59.2422 45.7031C59.9453 44.1927 60.2969 42.6823 60.2969 41.1719C60.2969 38.724 59.7109 36.5755 58.5391 34.7266C57.3672 32.8776 55.6224 31.4453 53.3047 30.4297C50.987 29.4141 48.1354 28.9062 44.75 28.9062H32.3281C31.599 28.9062 31.0651 29.0755 30.7266 29.4141C30.388 29.7266 30.2188 30.2474 30.2188 30.9766V75.4297C30.2188 76.1328 30.388 76.6536 30.7266 76.9922ZM49.3594 48.7891C47.901 49.4922 46.2604 49.8438 44.4375 49.8438H36.3516V34.1797H44.1641C47.6016 34.1797 50.1016 34.7917 51.6641 36.0156C53.2266 37.2135 54.0078 39.1146 54.0078 41.7188C54.0078 43.2292 53.5911 44.6094 52.7578 45.8594C51.9505 47.0833 50.8177 48.0599 49.3594 48.7891ZM53.5781 69.8438C51.9115 71.4323 49.5547 72.2266 46.5078 72.2266H36.3516V55.1172H45.2969C48.8385 55.1172 51.5208 55.8333 53.3438 57.2656C55.1667 58.6719 56.0781 60.6641 56.0781 63.2422C56.0781 66.0286 55.2448 68.2292 53.5781 69.8438Z" fill="url(#paint0_linear_3_225)"/>
</g>
<defs>
<filter id="filter0_d_3_225" x="0" y="0" width="87" height="114" filterUnits="userSpaceOnUse" color-interpolation-filters="sRGB">
<feFlood flood-opacity="0" result="BackgroundImageFix"/>
<feColorMatrix in="SourceAlpha" type="matrix" values="0 0 0 0 0 0 0 0 0 0 0 0 0 0 0 0 0 0 127 0" result="hardAlpha"/>
<feOffset dy="4"/>
<feGaussianBlur stdDeviation="2"/>
<feComposite in2="hardAlpha" operator="out"/>
<feColorMatrix type="matrix" values="0 0 0 0 0 0 0 0 0 0 0 0 0 0 0 0 0 0 0.25 0"/>
<feBlend mode="normal" in2="BackgroundImageFix" result="effect1_dropShadow_3_225"/>
<feBlend mode="normal" in="SourceGraphic" in2="effect1_dropShadow_3_225" result="shape"/>
</filter>
<linearGradient id="paint0_linear_3_225" x1="43.5" y1="0" x2="43.5" y2="106" gradientUnits="userSpaceOnUse">
<stop stop-color="white"/>
<stop offset="1" stop-color="#999999"/>
</linearGradient>
</defs>
</svg>
