<svg width="87" height="114" viewBox="0 0 87 114" fill="none" xmlns="http://www.w3.org/2000/svg">
<g filter="url(#filter0_d_3_228)">
<path fill-rule="evenodd" clip-rule="evenodd" d="M13.5 0C8.25329 0 4 4.25329 4 9.5V96.5C4 101.747 8.25329 106 13.5 106H73.5C78.7467 106 83 101.747 83 96.5V9.5C83 4.2533 78.7467 0 73.5 0H13.5ZM11 9.5C11 8.11929 12.1193 7 13.5 7H73.5C74.8807 7 76 8.11929 76 9.5V96.5C76 97.8807 74.8807 99 73.5 99H13.5C12.1193 99 11 97.8807 11 96.5V9.5ZM25.7266 75.9922C26.0651 76.3307 26.599 76.5 27.3281 76.5H41.3516C47.862 76.5 53.0703 74.5729 56.9766 70.7188C60.8828 66.8646 62.8359 60.6797 62.8359 52.1641C62.8359 43.7005 60.8828 37.5417 56.9766 33.6875C53.0703 29.8333 47.862 27.9062 41.3516 27.9062H27.3281C26.599 27.9062 26.0651 28.0755 25.7266 28.4141C25.388 28.7266 25.2188 29.2474 25.2188 29.9766V74.4297C25.2188 75.1328 25.388 75.6536 25.7266 75.9922ZM52.2109 66.6562C49.3464 69.7031 45.5703 71.2266 40.8828 71.2266H31.3516V33.1797H40.8828C43.9036 33.1797 46.5859 33.8307 48.9297 35.1328C51.2734 36.4089 53.1224 38.4661 54.4766 41.3047C55.8307 44.1172 56.5078 47.737 56.5078 52.1641C56.5078 58.7526 55.0755 63.5833 52.2109 66.6562Z" fill="url(#paint0_linear_3_228)"/>
</g>
<defs>
<filter id="filter0_d_3_228" x="0" y="0" width="87" height="114" filterUnits="userSpaceOnUse" color-interpolation-filters="sRGB">
<feFlood flood-opacity="0" result="BackgroundImageFix"/>
<feColorMatrix in="SourceAlpha" type="matrix" values="0 0 0 0 0 0 0 0 0 0 0 0 0 0 0 0 0 0 127 0" result="hardAlpha"/>
<feOffset dy="4"/>
<feGaussianBlur stdDeviation="2"/>
<feComposite in2="hardAlpha" operator="out"/>
<feColorMatrix type="matrix" values="0 0 0 0 0 0 0 0 0 0 0 0 0 0 0 0 0 0 0.25 0"/>
<feBlend mode="normal" in2="BackgroundImageFix" result="effect1_dropShadow_3_228"/>
<feBlend mode="normal" in="SourceGraphic" in2="effect1_dropShadow_3_228" result="shape"/>
</filter>
<linearGradient id="paint0_linear_3_228" x1="43.5" y1="0" x2="43.5" y2="106" gradientUnits="userSpaceOnUse">
<stop stop-color="white"/>
<stop offset="1" stop-color="#999999"/>
</linearGradient>
</defs>
</svg>
