<svg width="87" height="114" viewBox="0 0 87 114" fill="none" xmlns="http://www.w3.org/2000/svg">
<g filter="url(#filter0_d_3_226)">
<path fill-rule="evenodd" clip-rule="evenodd" d="M13.5 0C8.25329 0 4 4.25329 4 9.5V96.5C4 101.747 8.25329 106 13.5 106H73.5C78.7467 106 83 101.747 83 96.5V9.5C83 4.2533 78.7467 0 73.5 0H13.5ZM11 9.5C11 8.11929 12.1193 7 13.5 7H73.5C74.8807 7 76 8.11929 76 9.5V96.5C76 97.8807 74.8807 99 73.5 99H13.5C12.1193 99 11 97.8807 11 96.5V9.5ZM29.7266 76.9922C30.0651 77.3307 30.599 77.5 31.3281 77.5H55.625C56.1198 77.5 56.4714 77.3307 56.6797 76.9922C56.9141 76.6536 57.0312 76.1328 57.0312 75.4297V74.2969C57.0312 73.5677 56.9141 73.0469 56.6797 72.7344C56.4714 72.3958 56.1198 72.2266 55.625 72.2266H35.3516V55.2344H53.4766C53.9714 55.2344 54.3229 55.0781 54.5312 54.7656C54.7656 54.4271 54.8828 53.8932 54.8828 53.1641V52.1094C54.8828 51.3802 54.7656 50.8464 54.5312 50.5078C54.3229 50.1693 53.9714 50 53.4766 50H35.3516V34.1797H55.5469C56.0417 34.1797 56.3932 34.0104 56.6016 33.6719C56.8359 33.3333 56.9531 32.8125 56.9531 32.1094V30.9766C56.9531 30.2214 56.8359 29.6875 56.6016 29.375C56.3932 29.0625 56.0417 28.9062 55.5469 28.9062H31.3281C30.599 28.9062 30.0651 29.0755 29.7266 29.4141C29.388 29.7266 29.2188 30.2474 29.2188 30.9766V75.4297C29.2188 76.1328 29.388 76.6536 29.7266 76.9922Z" fill="url(#paint0_linear_3_226)"/>
</g>
<defs>
<filter id="filter0_d_3_226" x="0" y="0" width="87" height="114" filterUnits="userSpaceOnUse" color-interpolation-filters="sRGB">
<feFlood flood-opacity="0" result="BackgroundImageFix"/>
<feColorMatrix in="SourceAlpha" type="matrix" values="0 0 0 0 0 0 0 0 0 0 0 0 0 0 0 0 0 0 127 0" result="hardAlpha"/>
<feOffset dy="4"/>
<feGaussianBlur stdDeviation="2"/>
<feComposite in2="hardAlpha" operator="out"/>
<feColorMatrix type="matrix" values="0 0 0 0 0 0 0 0 0 0 0 0 0 0 0 0 0 0 0.25 0"/>
<feBlend mode="normal" in2="BackgroundImageFix" result="effect1_dropShadow_3_226"/>
<feBlend mode="normal" in="SourceGraphic" in2="effect1_dropShadow_3_226" result="shape"/>
</filter>
<linearGradient id="paint0_linear_3_226" x1="43.5" y1="0" x2="43.5" y2="106" gradientUnits="userSpaceOnUse">
<stop stop-color="white"/>
<stop offset="1" stop-color="#999999"/>
</linearGradient>
</defs>
</svg>
