<svg width="79" height="106" viewBox="0 0 79 106" fill="none" xmlns="http://www.w3.org/2000/svg">
<path fill-rule="evenodd" clip-rule="evenodd" d="M9.5 0C4.25329 0 0 4.25329 0 9.5V96.5C0 101.747 4.25329 106 9.5 106H69.5C74.7467 106 79 101.747 79 96.5V9.5C79 4.2533 74.7467 0 69.5 0H9.5ZM7 9.5C7 8.11929 8.11929 7 9.5 7H69.5C70.8807 7 72 8.11929 72 9.5V96.5C72 97.8807 70.8807 99 69.5 99H9.5C8.11929 99 7 97.8807 7 96.5V9.5ZM27.2188 79.0938C27.2188 80.1094 28.1562 80.6172 30.0312 80.6172H30.5781C32.4271 80.6172 33.3516 80.1094 33.3516 79.0938V58.2344H49.9531C50.4219 58.2344 50.7734 58.0781 51.0078 57.7656C51.2422 57.4271 51.3594 56.8932 51.3594 56.1641V55.1094C51.3594 54.3802 51.2422 53.8464 51.0078 53.5078C50.7734 53.1693 50.4219 53 49.9531 53H33.3516V37.1797H51.2031C51.6979 37.1797 52.0495 37.0104 52.2578 36.6719C52.4661 36.3333 52.5703 35.8125 52.5703 35.1094V33.9766C52.5703 33.2474 52.4661 32.7266 52.2578 32.4141C52.0495 32.0755 51.6979 31.9062 51.2031 31.9062H29.3281C28.599 31.9062 28.0651 32.0755 27.7266 32.4141C27.388 32.7266 27.2188 33.2474 27.2188 33.9766V79.0938Z" fill="white"/>
</svg>
