<svg width="87" height="114" viewBox="0 0 87 114" fill="none" xmlns="http://www.w3.org/2000/svg">
<g filter="url(#filter0_d_3_214)">
<path fill-rule="evenodd" clip-rule="evenodd" d="M13.5 0C8.25329 0 4 4.25329 4 9.5V96.5C4 101.747 8.25329 106 13.5 106H73.5C78.7467 106 83 101.747 83 96.5V9.5C83 4.2533 78.7467 0 73.5 0H13.5ZM11 9.5C11 8.11929 12.1193 7 13.5 7H73.5C74.8807 7 76 8.11929 76 9.5V96.5C76 97.8807 74.8807 99 73.5 99H13.5C12.1193 99 11 97.8807 11 96.5V9.5ZM29.9531 71.875C33.599 75.8854 38.9115 77.8906 45.8906 77.8906C50.4219 77.8906 54.1458 77.513 57.0625 76.7578C59.9792 75.9766 61.4375 74.6875 61.4375 72.8906V54.4922C61.4375 53.763 61.2682 53.2422 60.9297 52.9297C60.5911 52.5911 60.0573 52.4219 59.3281 52.4219H47.1797C46.6849 52.4219 46.3203 52.5911 46.0859 52.9297C45.8776 53.2422 45.7734 53.763 45.7734 54.4922V55.625C45.7734 56.3542 45.8776 56.888 46.0859 57.2266C46.3203 57.5391 46.6849 57.6953 47.1797 57.6953H55.3047V71.7188C54.3411 71.9792 53.0391 72.2005 51.3984 72.3828C49.7839 72.5391 48.1042 72.6172 46.3594 72.6172C40.6302 72.6172 36.5938 70.8464 34.25 67.3047C31.9323 63.737 30.7734 58.9583 30.7734 52.9688C30.7734 46.6146 32.0234 41.8229 34.5234 38.5938C37.0234 35.3385 41.2161 33.7109 47.1016 33.7109C49.237 33.7109 51.0469 33.9583 52.5312 34.4531C54.0156 34.9479 55.4349 35.5599 56.7891 36.2891C57.388 36.6276 57.7526 36.7969 57.8828 36.7969C58.1693 36.7969 58.4948 36.5495 58.8594 36.0547C59.224 35.5599 59.5365 34.987 59.7969 34.3359C60.0833 33.6849 60.2266 33.1641 60.2266 32.7734C60.2266 32.1484 59.5885 31.4974 58.3125 30.8203C57.0365 30.1432 55.3698 29.5833 53.3125 29.1406C51.2552 28.6719 49.1328 28.4375 46.9453 28.4375C31.9714 28.4375 24.4844 36.8229 24.4844 53.5938C24.4844 61.7448 26.3073 67.8385 29.9531 71.875Z" fill="url(#paint0_linear_3_214)"/>
</g>
<defs>
<filter id="filter0_d_3_214" x="0" y="0" width="87" height="114" filterUnits="userSpaceOnUse" color-interpolation-filters="sRGB">
<feFlood flood-opacity="0" result="BackgroundImageFix"/>
<feColorMatrix in="SourceAlpha" type="matrix" values="0 0 0 0 0 0 0 0 0 0 0 0 0 0 0 0 0 0 127 0" result="hardAlpha"/>
<feOffset dy="4"/>
<feGaussianBlur stdDeviation="2"/>
<feComposite in2="hardAlpha" operator="out"/>
<feColorMatrix type="matrix" values="0 0 0 0 0 0 0 0 0 0 0 0 0 0 0 0 0 0 0.25 0"/>
<feBlend mode="normal" in2="BackgroundImageFix" result="effect1_dropShadow_3_214"/>
<feBlend mode="normal" in="SourceGraphic" in2="effect1_dropShadow_3_214" result="shape"/>
</filter>
<linearGradient id="paint0_linear_3_214" x1="43.5" y1="0" x2="43.5" y2="106" gradientUnits="userSpaceOnUse">
<stop stop-color="white"/>
<stop offset="1" stop-color="#999999"/>
</linearGradient>
</defs>
</svg>
