<svg width="79" height="106" viewBox="0 0 79 106" fill="none" xmlns="http://www.w3.org/2000/svg">
<path fill-rule="evenodd" clip-rule="evenodd" d="M9.5 0C4.25329 0 0 4.25329 0 9.5V96.5C0 101.747 4.25329 106 9.5 106H69.5C74.7467 106 79 101.747 79 96.5V9.5C79 4.2533 74.7467 0 69.5 0H9.5ZM7 9.5C7 8.11929 8.11929 7 9.5 7H69.5C70.8807 7 72 8.11929 72 9.5V96.5C72 97.8807 70.8807 99 69.5 99H9.5C8.11929 99 7 97.8807 7 96.5V9.5ZM36.2188 76.0938C36.2188 77.1094 37.1562 77.6172 39.0312 77.6172H39.5781C41.4271 77.6172 42.3516 77.1094 42.3516 76.0938V30.2734C42.3516 29.2318 41.4271 28.7109 39.5781 28.7109H39.0312C37.1562 28.7109 36.2188 29.2318 36.2188 30.2734V76.0938Z" fill="white"/>
</svg>
