<svg width="79" height="106" viewBox="0 0 79 106" fill="none" xmlns="http://www.w3.org/2000/svg">
<path fill-rule="evenodd" clip-rule="evenodd" d="M9.5 0C4.25329 0 0 4.25329 0 9.5V96.5C0 101.747 4.25329 106 9.5 106H69.5C74.7467 106 79 101.747 79 96.5V9.5C79 4.2533 74.7467 0 69.5 0H9.5ZM7 9.5C7 8.11929 8.11929 7 9.5 7H69.5C70.8807 7 72 8.11929 72 9.5V96.5C72 97.8807 70.8807 99 69.5 99H9.5C8.11929 99 7 97.8807 7 96.5V9.5ZM30.0391 77.4219C31.4974 77.7344 33.138 77.8906 34.9609 77.8906C40.0651 77.8906 43.7891 76.6016 46.1328 74.0234C48.5026 71.4453 49.6875 67.8516 49.6875 63.2422V30.2734C49.6875 29.2318 48.75 28.7109 46.875 28.7109H46.3281C44.4792 28.7109 43.5547 29.2318 43.5547 30.2734V63.9453C43.5547 66.9401 42.7865 69.1146 41.25 70.4688C39.7396 71.8229 37.2656 72.5 33.8281 72.5C33.1771 72.5 32.5911 72.4609 32.0703 72.3828C31.5755 72.2786 30.9896 72.1484 30.3125 71.9922C29.7917 71.888 29.5052 71.8359 29.4531 71.8359C29.1146 71.8359 28.8281 72.1094 28.5938 72.6562C28.3854 73.2031 28.2161 73.8021 28.0859 74.4531C27.9557 75.1042 27.8906 75.5208 27.8906 75.7031C27.8906 76.5365 28.6068 77.1094 30.0391 77.4219Z" fill="white"/>
</svg>
