<svg width="87" height="114" viewBox="0 0 87 114" fill="none" xmlns="http://www.w3.org/2000/svg">
<g filter="url(#filter0_d_3_213)">
<path fill-rule="evenodd" clip-rule="evenodd" d="M13.5 0C8.25329 0 4 4.25329 4 9.5V96.5C4 101.747 8.25329 106 13.5 106H73.5C78.7467 106 83 101.747 83 96.5V9.5C83 4.2533 78.7467 0 73.5 0H13.5ZM11 9.5C11 8.11929 12.1193 7 13.5 7H73.5C74.8807 7 76 8.11929 76 9.5V96.5C76 97.8807 74.8807 99 73.5 99H13.5C12.1193 99 11 97.8807 11 96.5V9.5ZM30.2188 76.0938C30.2188 77.1094 31.1562 77.6172 33.0312 77.6172H33.5781C35.4271 77.6172 36.3516 77.1094 36.3516 76.0938V54.375H36.625L56.5078 76.7188C56.8724 77.1094 57.3411 77.3568 57.9141 77.4609C58.513 77.5651 59.3073 77.6172 60.2969 77.6172H61.1562C62.276 77.6172 63.0573 77.5521 63.5 77.4219C63.9688 77.2917 64.2031 77.0312 64.2031 76.6406C64.2031 76.3542 63.9948 75.9896 63.5781 75.5469L42.5625 52.6953L59.9062 31.0547C60.349 30.5339 60.5703 30.0651 60.5703 29.6484C60.5703 29.388 60.362 29.1667 59.9453 28.9844C59.5286 28.8021 58.9297 28.7109 58.1484 28.7109H57.4844C56.651 28.7109 55.8828 28.8021 55.1797 28.9844C54.5026 29.1406 54.0078 29.388 53.6953 29.7266L36.625 51.5234H36.3516V30.2734C36.3516 29.2318 35.4271 28.7109 33.5781 28.7109H33.0312C31.1562 28.7109 30.2188 29.2318 30.2188 30.2734V76.0938Z" fill="url(#paint0_linear_3_213)"/>
</g>
<defs>
<filter id="filter0_d_3_213" x="0" y="0" width="87" height="114" filterUnits="userSpaceOnUse" color-interpolation-filters="sRGB">
<feFlood flood-opacity="0" result="BackgroundImageFix"/>
<feColorMatrix in="SourceAlpha" type="matrix" values="0 0 0 0 0 0 0 0 0 0 0 0 0 0 0 0 0 0 127 0" result="hardAlpha"/>
<feOffset dy="4"/>
<feGaussianBlur stdDeviation="2"/>
<feComposite in2="hardAlpha" operator="out"/>
<feColorMatrix type="matrix" values="0 0 0 0 0 0 0 0 0 0 0 0 0 0 0 0 0 0 0.25 0"/>
<feBlend mode="normal" in2="BackgroundImageFix" result="effect1_dropShadow_3_213"/>
<feBlend mode="normal" in="SourceGraphic" in2="effect1_dropShadow_3_213" result="shape"/>
</filter>
<linearGradient id="paint0_linear_3_213" x1="43.5" y1="0" x2="43.5" y2="106" gradientUnits="userSpaceOnUse">
<stop stop-color="white"/>
<stop offset="1" stop-color="#999999"/>
</linearGradient>
</defs>
</svg>
