<svg width="79" height="106" viewBox="0 0 79 106" fill="none" xmlns="http://www.w3.org/2000/svg">
<path fill-rule="evenodd" clip-rule="evenodd" d="M9.5 0C4.25329 0 0 4.25329 0 9.5V96.5C0 101.747 4.25329 106 9.5 106H69.5C74.7467 106 79 101.747 79 96.5V9.5C79 4.2533 74.7467 0 69.5 0H9.5ZM7 9.5C7 8.11929 8.11929 7 9.5 7H69.5C70.8807 7 72 8.11929 72 9.5V96.5C72 97.8807 70.8807 99 69.5 99H9.5C8.11929 99 7 97.8807 7 96.5V9.5ZM17.4141 77.2656C17.8568 77.5 18.5729 77.6172 19.5625 77.6172H20.0312C21.8802 77.6172 22.8047 77.1094 22.8047 76.0938V38.3203L36.9453 63.0469C37.2839 63.6458 37.8047 63.9453 38.5078 63.9453H41.2812C41.6458 63.9453 41.9453 63.8802 42.1797 63.75C42.4141 63.5938 42.6224 63.3594 42.8047 63.0469L56.6328 39.0234L56.75 38.7109V76.0938C56.75 76.6146 56.9714 77.0052 57.4141 77.2656C57.8568 77.5 58.5729 77.6172 59.5625 77.6172H60.0312C61.8802 77.6172 62.8047 77.1094 62.8047 76.0938V30.2734C62.8047 29.2318 61.8802 28.7109 60.0312 28.7109H57.7266C56.2422 28.7109 55.2786 29.1406 54.8359 30L41.6719 53.1641L39.875 57.1484L38.0781 52.7734L24.9531 30C24.5365 29.1406 23.5599 28.7109 22.0234 28.7109H19.5625C17.6875 28.7109 16.75 29.2318 16.75 30.2734V76.0938C16.75 76.6146 16.9714 77.0052 17.4141 77.2656Z" fill="white"/>
</svg>
