<svg width="87" height="114" viewBox="0 0 87 114" fill="none" xmlns="http://www.w3.org/2000/svg">
<g filter="url(#filter0_d_3_217)">
<path fill-rule="evenodd" clip-rule="evenodd" d="M13.5 0C8.25329 0 4 4.25329 4 9.5V96.5C4 101.747 8.25329 106 13.5 106H73.5C78.7467 106 83 101.747 83 96.5V9.5C83 4.2533 78.7467 0 73.5 0H13.5ZM11 9.5C11 8.11929 12.1193 7 13.5 7H73.5C74.8807 7 76 8.11929 76 9.5V96.5C76 97.8807 74.8807 99 73.5 99H13.5C12.1193 99 11 97.8807 11 96.5V9.5ZM25.4141 77.2656C25.8568 77.5 26.5729 77.6172 27.5625 77.6172H28.0312C29.8802 77.6172 30.8047 77.1094 30.8047 76.0938V38.5156L32.6797 42.1094L55.5703 76.6406C55.7786 76.9792 56.0781 77.2266 56.4688 77.3828C56.8594 77.5391 57.3802 77.6172 58.0312 77.6172H59.4375C60.375 77.6172 61.0651 77.5 61.5078 77.2656C61.9505 77.0052 62.1719 76.6146 62.1719 76.0938V30.2734C62.1719 29.2318 61.2604 28.7109 59.4375 28.7109H58.8906C57.0677 28.7109 56.1562 29.2318 56.1562 30.2734V67.4219L54.0859 63.5156L31.8984 30.0391C31.5599 29.5703 31.1693 29.2318 30.7266 29.0234C30.3099 28.8151 29.737 28.7109 29.0078 28.7109H27.5625C25.6875 28.7109 24.75 29.2318 24.75 30.2734V76.0938C24.75 76.6146 24.9714 77.0052 25.4141 77.2656Z" fill="url(#paint0_linear_3_217)"/>
</g>
<defs>
<filter id="filter0_d_3_217" x="0" y="0" width="87" height="114" filterUnits="userSpaceOnUse" color-interpolation-filters="sRGB">
<feFlood flood-opacity="0" result="BackgroundImageFix"/>
<feColorMatrix in="SourceAlpha" type="matrix" values="0 0 0 0 0 0 0 0 0 0 0 0 0 0 0 0 0 0 127 0" result="hardAlpha"/>
<feOffset dy="4"/>
<feGaussianBlur stdDeviation="2"/>
<feComposite in2="hardAlpha" operator="out"/>
<feColorMatrix type="matrix" values="0 0 0 0 0 0 0 0 0 0 0 0 0 0 0 0 0 0 0.25 0"/>
<feBlend mode="normal" in2="BackgroundImageFix" result="effect1_dropShadow_3_217"/>
<feBlend mode="normal" in="SourceGraphic" in2="effect1_dropShadow_3_217" result="shape"/>
</filter>
<linearGradient id="paint0_linear_3_217" x1="43.5" y1="0" x2="43.5" y2="106" gradientUnits="userSpaceOnUse">
<stop stop-color="white"/>
<stop offset="1" stop-color="#999999"/>
</linearGradient>
</defs>
</svg>
