<svg width="79" height="106" viewBox="0 0 79 106" fill="none" xmlns="http://www.w3.org/2000/svg">
<path fill-rule="evenodd" clip-rule="evenodd" d="M9.5 0C4.25329 0 0 4.25329 0 9.5V96.5C0 101.747 4.25329 106 9.5 106H69.5C74.7467 106 79 101.747 79 96.5V9.5C79 4.2533 74.7467 0 69.5 0H9.5ZM7 9.5C7 8.11929 8.11929 7 9.5 7H69.5C70.8807 7 72 8.11929 72 9.5V96.5C72 97.8807 70.8807 99 69.5 99H9.5C8.11929 99 7 97.8807 7 96.5V9.5ZM27.0625 75.2656C27.5052 75.5 28.2083 75.6172 29.1719 75.6172H29.7578C30.6953 75.6172 31.3854 75.5 31.8281 75.2656C32.2708 75.0052 32.4922 74.6146 32.4922 74.0938V54.7969H43.2734C45.0703 54.7969 47.0885 54.4453 49.3281 53.7422C51.5677 53.013 53.5859 51.5938 55.3828 49.4844C57.1797 47.349 58.0781 44.3542 58.0781 40.5C58.0781 35.3177 56.5026 31.763 53.3516 29.8359C50.2266 27.8828 46.6328 26.9062 42.5703 26.9062H28.5078C27.7786 26.9062 27.2448 27.0625 26.9062 27.375C26.5938 27.6875 26.4375 28.2214 26.4375 28.9766V74.0938C26.4375 74.6146 26.6458 75.0052 27.0625 75.2656ZM47.0234 48.7812C45.7474 49.276 44.5234 49.5234 43.3516 49.5234H32.4922V32.1797H42.375C44.9531 32.1797 47.1536 32.7917 48.9766 34.0156C50.8255 35.2396 51.75 37.401 51.75 40.5C51.75 42.8177 51.2812 44.6536 50.3438 46.0078C49.4062 47.3359 48.2995 48.2604 47.0234 48.7812Z" fill="white"/>
</svg>
