<svg width="87" height="114" viewBox="0 0 87 114" fill="none" xmlns="http://www.w3.org/2000/svg">
<g filter="url(#filter0_d_3_212)">
<path fill-rule="evenodd" clip-rule="evenodd" d="M13.5 0C8.25329 0 4 4.25329 4 9.5V96.5C4 101.747 8.25329 106 13.5 106H73.5C78.7467 106 83 101.747 83 96.5V9.5C83 4.2533 78.7467 0 73.5 0H13.5ZM11 9.5C11 8.11929 12.1193 7 13.5 7H73.5C74.8807 7 76 8.11929 76 9.5V96.5C76 97.8807 74.8807 99 73.5 99H13.5C12.1193 99 11 97.8807 11 96.5V9.5ZM29.2188 76.0938C29.2188 77.1094 30.1562 77.6172 32.0312 77.6172H32.5781C34.4271 77.6172 35.3516 77.1094 35.3516 76.0938V56.0938H41.6016C43.5026 56.0938 45.0781 56.2891 46.3281 56.6797C47.5781 57.0703 48.6589 57.7604 49.5703 58.75C50.4818 59.7396 51.276 61.1198 51.9531 62.8906L57.2266 76.5234C57.3568 76.862 57.6693 77.1354 58.1641 77.3438C58.6849 77.526 59.2969 77.6172 60 77.6172H60.7031C62.6562 77.6172 63.6328 77.2526 63.6328 76.5234C63.6328 76.3411 63.5677 76.0156 63.4375 75.5469L58.0078 61.8359C56.9401 59.2057 55.9635 57.2266 55.0781 55.8984C54.2188 54.5443 53.112 53.6328 51.7578 53.1641V52.8906C54.2839 51.901 56.237 50.4297 57.6172 48.4766C59.0234 46.4974 59.7266 44.0625 59.7266 41.1719C59.7266 36.901 58.3203 33.7891 55.5078 31.8359C52.7214 29.8828 48.5547 28.9062 43.0078 28.9062H31.3281C30.599 28.9062 30.0651 29.0755 29.7266 29.4141C29.388 29.7266 29.2188 30.2474 29.2188 30.9766V76.0938ZM48.9844 49.6484C47.6302 50.4297 46.1328 50.8203 44.4922 50.8203H35.3516V34.1797H44.0234C46.9661 34.1797 49.2708 34.8568 50.9375 36.2109C52.6042 37.5391 53.4375 39.5703 53.4375 42.3047C53.4375 43.7891 53.0339 45.1953 52.2266 46.5234C51.4453 47.8255 50.3646 48.8672 48.9844 49.6484Z" fill="url(#paint0_linear_3_212)"/>
</g>
<defs>
<filter id="filter0_d_3_212" x="0" y="0" width="87" height="114" filterUnits="userSpaceOnUse" color-interpolation-filters="sRGB">
<feFlood flood-opacity="0" result="BackgroundImageFix"/>
<feColorMatrix in="SourceAlpha" type="matrix" values="0 0 0 0 0 0 0 0 0 0 0 0 0 0 0 0 0 0 127 0" result="hardAlpha"/>
<feOffset dy="4"/>
<feGaussianBlur stdDeviation="2"/>
<feComposite in2="hardAlpha" operator="out"/>
<feColorMatrix type="matrix" values="0 0 0 0 0 0 0 0 0 0 0 0 0 0 0 0 0 0 0.25 0"/>
<feBlend mode="normal" in2="BackgroundImageFix" result="effect1_dropShadow_3_212"/>
<feBlend mode="normal" in="SourceGraphic" in2="effect1_dropShadow_3_212" result="shape"/>
</filter>
<linearGradient id="paint0_linear_3_212" x1="43.5" y1="0" x2="43.5" y2="106" gradientUnits="userSpaceOnUse">
<stop stop-color="white"/>
<stop offset="1" stop-color="#999999"/>
</linearGradient>
</defs>
</svg>
