<svg width="79" height="106" viewBox="0 0 79 106" fill="none" xmlns="http://www.w3.org/2000/svg">
<path fill-rule="evenodd" clip-rule="evenodd" d="M9.5 0C4.25329 0 0 4.25329 0 9.5V96.5C0 101.747 4.25329 106 9.5 106H69.5C74.7467 106 79 101.747 79 96.5V9.5C79 4.2533 74.7467 0 69.5 0H9.5ZM7 9.5C7 8.11929 8.11929 7 9.5 7H69.5C70.8807 7 72 8.11929 72 9.5V96.5C72 97.8807 70.8807 99 69.5 99H9.5C8.11929 99 7 97.8807 7 96.5V9.5ZM25.2188 76.0938C25.2188 77.1094 26.1562 77.6172 28.0312 77.6172H28.5781C30.4271 77.6172 31.3516 77.1094 31.3516 76.0938V56.0938H37.6016C39.5026 56.0938 41.0781 56.2891 42.3281 56.6797C43.5781 57.0703 44.6589 57.7604 45.5703 58.75C46.4818 59.7396 47.276 61.1198 47.9531 62.8906L53.2266 76.5234C53.3568 76.862 53.6693 77.1354 54.1641 77.3438C54.6849 77.526 55.2969 77.6172 56 77.6172H56.7031C58.6562 77.6172 59.6328 77.2526 59.6328 76.5234C59.6328 76.3411 59.5677 76.0156 59.4375 75.5469L54.0078 61.8359C52.9401 59.2057 51.9635 57.2266 51.0781 55.8984C50.2188 54.5443 49.112 53.6328 47.7578 53.1641V52.8906C50.2839 51.901 52.237 50.4297 53.6172 48.4766C55.0234 46.4974 55.7266 44.0625 55.7266 41.1719C55.7266 36.901 54.3203 33.7891 51.5078 31.8359C48.7214 29.8828 44.5547 28.9062 39.0078 28.9062H27.3281C26.599 28.9062 26.0651 29.0755 25.7266 29.4141C25.388 29.7266 25.2188 30.2474 25.2188 30.9766V76.0938ZM44.9844 49.6484C43.6302 50.4297 42.1328 50.8203 40.4922 50.8203H31.3516V34.1797H40.0234C42.9661 34.1797 45.2708 34.8568 46.9375 36.2109C48.6042 37.5391 49.4375 39.5703 49.4375 42.3047C49.4375 43.7891 49.0339 45.1953 48.2266 46.5234C47.4453 47.8255 46.3646 48.8672 44.9844 49.6484Z" fill="white"/>
</svg>
