<svg width="79" height="106" viewBox="0 0 79 106" fill="none" xmlns="http://www.w3.org/2000/svg">
<path fill-rule="evenodd" clip-rule="evenodd" d="M9.5 0C4.25329 0 0 4.25329 0 9.5V96.5C0 101.747 4.25329 106 9.5 106H69.5C74.7467 106 79 101.747 79 96.5V9.5C79 4.2533 74.7467 0 69.5 0H9.5ZM7 9.5C7 8.11929 8.11929 7 9.5 7H69.5C70.8807 7 72 8.11929 72 9.5V96.5C72 97.8807 70.8807 99 69.5 99H9.5C8.11929 99 7 97.8807 7 96.5V9.5ZM37.2969 77.2656C37.7396 77.5 38.4427 77.6172 39.4062 77.6172H39.9531C41.8281 77.6172 42.7656 77.1094 42.7656 76.0938V34.1797H55.8516C56.3464 34.1797 56.6979 34.0104 56.9062 33.6719C57.1146 33.3333 57.2188 32.8125 57.2188 32.1094V30.9766C57.2188 30.2474 57.1146 29.7266 56.9062 29.4141C56.6979 29.0755 56.3464 28.9062 55.8516 28.9062H23.2734C22.7786 28.9062 22.4271 29.0755 22.2188 29.4141C22.0104 29.7266 21.9062 30.2474 21.9062 30.9766V32.1094C21.9062 32.8125 22.0104 33.3333 22.2188 33.6719C22.4271 34.0104 22.7786 34.1797 23.2734 34.1797H36.6328V76.0938C36.6328 76.6146 36.8542 77.0052 37.2969 77.2656Z" fill="white"/>
</svg>
