<svg width="87" height="114" viewBox="0 0 87 114" fill="none" xmlns="http://www.w3.org/2000/svg">
<g filter="url(#filter0_d_3_224)">
<path fill-rule="evenodd" clip-rule="evenodd" d="M13.5 0C8.25329 0 4 4.25329 4 9.5V96.5C4 101.747 8.25329 106 13.5 106H73.5C78.7467 106 83 101.747 83 96.5V9.5C83 4.2533 78.7467 0 73.5 0H13.5ZM11 9.5C11 8.11929 12.1193 7 13.5 7H73.5C74.8807 7 76 8.11929 76 9.5V96.5C76 97.8807 74.8807 99 73.5 99H13.5C12.1193 99 11 97.8807 11 96.5V9.5ZM41.2969 77.2656C41.7396 77.5 42.4427 77.6172 43.4062 77.6172H43.9531C45.8281 77.6172 46.7656 77.1094 46.7656 76.0938V34.1797H59.8516C60.3464 34.1797 60.6979 34.0104 60.9062 33.6719C61.1146 33.3333 61.2188 32.8125 61.2188 32.1094V30.9766C61.2188 30.2474 61.1146 29.7266 60.9062 29.4141C60.6979 29.0755 60.3464 28.9062 59.8516 28.9062H27.2734C26.7786 28.9062 26.4271 29.0755 26.2188 29.4141C26.0104 29.7266 25.9062 30.2474 25.9062 30.9766V32.1094C25.9062 32.8125 26.0104 33.3333 26.2188 33.6719C26.4271 34.0104 26.7786 34.1797 27.2734 34.1797H40.6328V76.0938C40.6328 76.6146 40.8542 77.0052 41.2969 77.2656Z" fill="url(#paint0_linear_3_224)"/>
</g>
<defs>
<filter id="filter0_d_3_224" x="0" y="0" width="87" height="114" filterUnits="userSpaceOnUse" color-interpolation-filters="sRGB">
<feFlood flood-opacity="0" result="BackgroundImageFix"/>
<feColorMatrix in="SourceAlpha" type="matrix" values="0 0 0 0 0 0 0 0 0 0 0 0 0 0 0 0 0 0 127 0" result="hardAlpha"/>
<feOffset dy="4"/>
<feGaussianBlur stdDeviation="2"/>
<feComposite in2="hardAlpha" operator="out"/>
<feColorMatrix type="matrix" values="0 0 0 0 0 0 0 0 0 0 0 0 0 0 0 0 0 0 0.25 0"/>
<feBlend mode="normal" in2="BackgroundImageFix" result="effect1_dropShadow_3_224"/>
<feBlend mode="normal" in="SourceGraphic" in2="effect1_dropShadow_3_224" result="shape"/>
</filter>
<linearGradient id="paint0_linear_3_224" x1="43.5" y1="0" x2="43.5" y2="106" gradientUnits="userSpaceOnUse">
<stop stop-color="white"/>
<stop offset="1" stop-color="#999999"/>
</linearGradient>
</defs>
</svg>
