<svg width="79" height="106" viewBox="0 0 79 106" fill="none" xmlns="http://www.w3.org/2000/svg">
<path fill-rule="evenodd" clip-rule="evenodd" d="M9.5 0C4.25329 0 0 4.25329 0 9.5V96.5C0 101.747 4.25329 106 9.5 106H69.5C74.7467 106 79 101.747 79 96.5V9.5C79 4.2533 74.7467 0 69.5 0H9.5ZM7 9.5C7 8.11929 8.11929 7 9.5 7H69.5C70.8807 7 72 8.11929 72 9.5V96.5C72 97.8807 70.8807 99 69.5 99H9.5C8.11929 99 7 97.8807 7 96.5V9.5ZM23.9844 73.6455C24.1211 74.2835 24.9414 74.6025 26.4453 74.6025H28.9404C30.3988 74.6025 31.1963 74.2835 31.333 73.6455L37.9639 48.8994L39.2627 41.0039L40.4932 48.8994L47.1582 73.6455C47.2949 74.2835 48.1038 74.6025 49.585 74.6025H52.0459C53.5042 74.6025 54.3245 74.2835 54.5068 73.6455L65 33.7236C65.1139 33.3135 65.1709 33.0286 65.1709 32.8691C65.1709 32.1628 64.305 31.8096 62.5732 31.8096H62.1973C60.7617 31.8096 59.9642 32.14 59.8047 32.8008L52.4561 62.6055C51.9548 64.4967 51.4648 66.4222 50.9863 68.3818C50.9408 67.9945 50.804 67.1855 50.5762 65.9551C50.3711 64.7246 50.1546 63.665 49.9268 62.7764L42.4072 32.8691C42.2477 32.1628 41.4502 31.8096 40.0146 31.8096H39.0576C37.6449 31.8096 36.8587 32.1628 36.6992 32.8691L29.3506 62.5371C28.8721 64.3372 28.3822 66.2855 27.8809 68.3818C27.8581 68.3363 27.7897 67.9603 27.6758 67.2539C27.2201 64.8158 26.9238 63.3005 26.7871 62.708L19.0625 32.8008C18.9714 32.459 18.7093 32.2083 18.2764 32.0488C17.8434 31.8893 17.2965 31.8096 16.6357 31.8096H16.0547C15.166 31.8096 14.5052 31.9121 14.0723 32.1172C13.6393 32.2995 13.4229 32.5501 13.4229 32.8691C13.4229 32.9603 13.4456 33.097 13.4912 33.2793C13.5368 33.4616 13.571 33.6097 13.5938 33.7236L23.9844 73.6455Z" fill="white"/>
</svg>
