<svg width="79" height="106" viewBox="0 0 79 106" fill="none" xmlns="http://www.w3.org/2000/svg">
<path fill-rule="evenodd" clip-rule="evenodd" d="M9.5 0C4.25329 0 0 4.25329 0 9.5V96.5C0 101.747 4.25329 106 9.5 106H69.5C74.7467 106 79 101.747 79 96.5V9.5C79 4.2533 74.7467 0 69.5 0H9.5ZM7 9.5C7 8.11929 8.11929 7 9.5 7H69.5C70.8807 7 72 8.11929 72 9.5V96.5C72 97.8807 70.8807 99 69.5 99H9.5C8.11929 99 7 97.8807 7 96.5V9.5ZM22.7031 74.2109C23.0938 75.0703 23.4714 75.5 23.8359 75.5H57.625C58.1198 75.5 58.4714 75.3177 58.6797 74.9531C58.9141 74.5625 59.0312 73.9505 59.0312 73.1172V72.5703C59.0312 71.737 58.9141 71.138 58.6797 70.7734C58.4714 70.4089 58.1198 70.2266 57.625 70.2266H30.4766L58.9531 31.3984C59.0833 31.1901 59.1484 30.9167 59.1484 30.5781C59.1484 30.1094 59.0573 29.5885 58.875 29.0156C58.6927 28.4427 58.4714 27.9479 58.2109 27.5312C57.9766 27.1146 57.7812 26.9062 57.625 26.9062H25.8281C25.3333 26.9062 24.9688 27.0885 24.7344 27.4531C24.526 27.8177 24.4219 28.4167 24.4219 29.25V29.7969C24.4219 30.6302 24.526 31.2422 24.7344 31.6328C24.9688 31.9974 25.3333 32.1797 25.8281 32.1797H50.8281L22.3516 70.9688C22.2214 71.1771 22.1562 71.4635 22.1562 71.8281C22.1562 72.5312 22.3385 73.3255 22.7031 74.2109Z" fill="white"/>
</svg>
